<svg width="259" height="256" viewBox="0 0 259 256" fill="none" xmlns="http://www.w3.org/2000/svg">
<g clip-path="url(#clip0_116_233)">
<path d="M134.858 34.843V59.2317C125.284 59.2317 115.803 61.1148 106.957 64.7736C98.1114 68.4324 90.0739 73.7951 83.3037 80.5556C76.5335 87.3161 71.163 95.342 67.499 104.175C63.835 113.008 61.9491 122.475 61.9491 132.036C61.9491 141.597 63.835 151.064 67.499 159.897C71.163 168.73 76.5335 176.756 83.3037 183.517C90.0739 190.277 98.1114 195.64 106.957 199.299C115.803 202.957 125.284 204.84 134.858 204.84V229.229C81.1879 229.229 37.5246 185.629 37.5246 132.036C37.5246 78.443 81.1879 34.843 134.858 34.843Z" fill="#E3E3E3"/>
<path d="M134.858 34.843V59.2317C144.433 59.2317 153.913 61.1148 162.759 64.7736C171.605 68.4324 179.642 73.7951 186.413 80.5556C193.183 87.3161 198.553 95.342 202.217 104.175C205.881 113.008 207.767 122.475 207.767 132.036C207.767 141.597 205.881 151.064 202.217 159.897C198.553 168.73 193.183 176.756 186.413 183.517C179.642 190.277 171.605 195.64 162.759 199.299C153.913 202.957 144.433 204.84 134.858 204.84V229.229C188.528 229.229 232.191 185.629 232.191 132.036C232.191 78.443 188.528 34.843 134.858 34.843Z" fill="#F59121"/>
<g opacity="0.15">
<path opacity="0.01" d="M148.505 52.7819C143.201 38.947 133.908 26.9933 121.8 18.4326C109.693 9.87177 95.3154 5.08834 80.4855 4.68715C65.6556 4.28596 51.0395 8.28504 38.4857 16.1787C25.9319 24.0723 16.0041 35.506 9.95772 49.0338C3.91135 62.5616 2.01797 77.576 4.51704 92.1784C7.01611 106.781 13.7954 120.315 23.9975 131.07C34.1997 141.825 47.3666 149.318 61.8332 152.6C76.2997 155.883 91.4161 154.808 105.271 149.512C123.85 142.41 138.842 128.228 146.95 110.088C155.058 91.9477 155.618 71.334 148.505 52.7819Z" fill="#EEEEEE"/>
<path opacity="0.014" d="M149.069 53.3226C143.768 39.4947 134.479 27.547 122.378 18.9905C110.277 10.434 95.9063 5.65288 81.0839 5.25184C66.2615 4.8508 51.6528 8.84781 39.1053 16.7374C26.5578 24.6271 16.6349 36.0549 10.5916 49.5759C4.54823 63.0969 2.65581 78.1038 5.1536 92.6988C7.6514 107.294 14.4273 120.821 24.6243 131.571C34.8213 142.321 47.9816 149.809 62.4408 153.09C76.9001 156.371 92.0089 155.297 105.857 150.003C124.426 142.905 139.411 128.731 147.515 110.6C155.619 92.4685 156.178 71.8654 149.069 53.3226Z" fill="#EBEBEB"/>
<path opacity="0.021" d="M149.633 53.8628C144.335 40.0417 135.051 28.0999 122.955 19.5477C110.86 10.9954 96.4965 6.2168 81.6814 5.81611C66.8663 5.41541 52.2649 9.41064 39.7237 17.2966C27.1825 25.1825 17.2648 36.6049 11.2248 50.1194C5.18473 63.6339 3.29361 78.6334 5.79061 93.2211C8.28762 107.809 15.0606 121.329 25.253 132.073C35.4454 142.817 48.5994 150.302 63.0517 153.58C77.5039 156.859 92.6053 155.785 106.446 150.493C125.005 143.397 139.981 129.231 148.08 111.109C156.18 92.9876 156.738 72.3956 149.633 53.8628Z" fill="#E9E9E9"/>
<path opacity="0.028" d="M150.197 54.4031C144.901 40.5891 135.622 28.6536 123.533 20.1057C111.444 11.5578 97.0881 6.78157 82.2807 6.38091C67.4733 5.98024 52.8795 9.97317 40.3446 17.8548C27.8098 25.7363 17.897 37.1526 11.8597 50.6599C5.82239 64.1672 3.9318 79.1588 6.42699 93.739C8.92217 108.319 15.6911 121.833 25.8777 132.572C36.0643 143.311 49.2112 150.792 63.6558 154.07C78.1003 157.347 93.1939 156.274 107.028 150.986C116.213 147.475 124.616 142.192 131.757 135.438C138.897 128.683 144.636 120.591 148.644 111.623C152.653 102.654 154.853 92.9847 155.12 83.167C155.386 73.3493 153.714 63.5753 150.197 54.4031Z" fill="#E6E6E6"/>
<path opacity="0.035" d="M150.761 54.9439C145.468 41.1371 136.193 29.2078 124.11 20.6645C112.027 12.1212 97.6782 7.34767 82.8783 6.94748C68.0784 6.54728 53.4921 10.5384 40.9637 18.4162C28.4354 26.294 18.5278 37.7046 12.4938 51.2051C6.45976 64.7056 4.57035 79.6896 7.06446 94.2623C9.55856 108.835 16.3241 122.342 26.5057 133.075C36.6873 143.808 49.8276 151.286 64.2648 154.562C78.7021 157.838 93.7879 156.765 107.615 151.479C116.796 147.97 125.194 142.689 132.331 135.938C139.468 129.188 145.204 121.099 149.21 112.135C153.217 103.171 155.416 93.5063 155.682 83.6934C155.948 73.8805 154.276 64.1114 150.761 54.9439Z" fill="#E4E4E4"/>
<path opacity="0.042" d="M151.325 55.4841C146.034 41.6843 136.765 29.761 124.688 21.2219C112.611 12.6829 98.2698 7.91163 83.4775 7.51151C68.6852 7.11138 54.1063 11.1004 41.5843 18.974C29.0623 26.8477 19.1597 38.2524 13.1287 51.7459C7.09764 65.2394 5.2091 80.2158 7.70186 94.7811C10.1946 109.346 16.9567 122.847 27.133 133.574C37.3094 144.302 50.4429 151.776 64.8728 155.05C79.3026 158.324 94.3807 157.252 108.2 151.969C117.376 148.461 125.771 143.183 132.904 136.436C140.037 129.689 145.77 121.605 149.774 112.645C153.779 103.686 155.977 94.0264 156.243 84.2187C156.509 74.4109 154.838 64.6469 151.325 55.4841Z" fill="#E2E2E2"/>
<path opacity="0.049" d="M151.89 56.0243C146.602 42.2313 137.337 30.3138 125.266 21.779C113.195 13.2441 98.8609 8.47519 84.076 8.07522C69.291 7.67525 54.7193 11.6622 42.2035 19.532C29.6877 27.4017 19.79 38.8007 13.762 52.2876C7.73398 65.7744 5.84638 80.7433 8.33793 95.3014C10.8295 109.86 17.5883 123.353 27.7596 134.075C37.9309 144.798 51.0579 152.267 65.4806 155.54C79.9034 158.813 94.974 157.741 108.787 152.461C117.958 148.955 126.348 143.679 133.478 136.935C140.607 130.191 146.337 122.111 150.34 113.156C154.342 104.202 156.539 94.5471 156.805 84.7443C157.071 74.9416 155.401 65.1825 151.89 56.0243Z" fill="#DFDFDF"/>
<path opacity="0.055" d="M152.455 56.5651C147.169 42.779 137.909 30.8676 125.845 22.337C113.78 13.8064 99.4531 9.03976 84.6756 8.63994C69.8981 8.24012 55.3337 12.225 42.8242 20.0907C30.3148 27.9565 20.422 39.3497 14.397 52.8297C8.37202 66.3098 6.48538 81.2711 8.97566 95.8219C11.4659 110.373 18.2213 123.859 28.3875 134.576C38.5536 145.293 51.674 152.759 66.0895 156.03C80.5049 159.301 95.568 158.23 109.374 152.952C127.887 145.875 142.826 131.744 150.905 113.668C158.984 95.592 159.542 75.0515 152.455 56.5651Z" fill="#DDDDDD"/>
<path opacity="0.062" d="M153.018 57.1053C147.735 43.3262 138.48 31.4208 126.421 22.8944C114.363 14.3681 100.043 9.60378 85.2734 9.204C70.5034 8.80423 55.9464 12.7869 43.4432 20.6485C30.9401 28.51 21.0522 39.8973 15.0301 53.3704C9.00796 66.8434 7.12205 81.7971 9.61082 96.3405C12.0996 110.884 18.8513 124.364 29.0121 135.075C39.1729 145.787 52.2863 153.249 66.6944 156.519C81.1024 159.788 96.1577 158.718 109.957 153.444C128.46 146.37 143.393 132.247 151.468 114.18C159.543 96.1128 160.101 75.5825 153.018 57.1053Z" fill="#DBDBDB"/>
<path opacity="0.069" d="M153.581 57.6455C148.302 43.8735 139.051 31.9741 126.998 23.4522C114.946 14.9303 100.634 10.1686 85.871 9.76918C71.1085 9.36979 56.559 13.3507 44.0622 21.2084C31.5655 29.0662 21.6828 40.4479 15.6639 53.9142C9.64501 67.3805 7.76028 82.3267 10.248 96.8627C12.7358 111.399 19.4842 124.872 29.6401 135.578C39.7959 146.284 52.903 153.742 67.3038 157.01C81.7046 160.277 96.7524 159.207 110.544 153.935C119.702 150.434 128.079 145.167 135.198 138.433C142.317 131.7 148.038 123.632 152.034 114.691C156.03 105.75 158.224 96.1097 158.489 86.3219C158.755 76.534 157.087 66.7897 153.581 57.6455Z" fill="#D8D8D8"/>
<path opacity="0.076" d="M154.145 58.1863C148.868 44.4212 139.622 32.5278 127.576 24.0102C115.529 15.4926 101.224 10.7333 86.4693 10.3341C71.7142 9.93489 57.172 13.9138 44.6816 21.7676C32.1911 29.6214 22.3135 40.9973 16.2977 54.4569C10.2819 67.9165 8.39816 82.8551 10.8847 97.3837C13.3713 111.912 20.1164 125.378 30.2672 136.079C40.418 146.78 53.5185 154.234 67.912 157.5C82.3056 160.766 97.3457 159.696 111.131 154.426C120.283 150.928 128.656 145.663 135.771 138.933C142.886 132.203 148.604 124.139 152.599 115.202C156.593 106.266 158.785 96.6307 159.051 86.8479C159.316 77.0651 157.649 67.3258 154.145 58.1863Z" fill="#D6D6D6"/>
<path opacity="0.083" d="M154.71 58.7265C149.435 44.9687 140.193 33.0817 128.153 24.5688C116.113 16.0558 101.815 11.2992 87.0677 10.9005C72.3203 10.5017 57.7857 14.4787 45.3018 22.3286C32.8179 30.1785 22.9454 41.5486 16.9328 55.0012C10.9202 68.4538 9.03746 83.3847 11.5227 97.9058C14.0079 112.427 20.7496 125.886 30.895 136.581C41.0404 147.276 54.134 154.727 68.5201 157.991C82.9061 161.256 97.9386 160.187 111.716 154.92C120.865 151.423 129.234 146.161 136.345 139.434C143.457 132.707 149.172 124.648 153.165 115.715C157.157 106.783 159.348 97.1524 159.614 87.3743C159.879 77.5961 158.212 67.8616 154.71 58.7265Z" fill="#D3D3D3"/>
<path opacity="0.09" d="M155.274 59.265C150.002 45.5139 140.765 33.6326 128.731 25.1237C116.697 16.6147 102.407 11.8602 87.6666 11.4614C72.9266 11.0626 58.3992 15.0374 45.9214 22.8832C33.4437 30.7289 23.5761 42.0933 17.5663 55.5391C11.5566 68.9849 9.67472 83.9084 12.1587 98.4222C14.6426 112.936 21.3808 126.388 31.5212 137.078C41.6616 147.768 54.7487 155.215 69.1275 158.478C83.5064 161.74 98.5313 160.672 112.302 155.408C130.768 148.349 145.67 134.254 153.728 116.223C161.787 98.193 162.343 77.7045 155.274 59.265Z" fill="#D1D1D1"/>
<path opacity="0.097" d="M155.838 59.8075C150.569 46.0636 141.337 34.1885 129.309 25.684C117.282 17.1794 102.999 12.4272 88.2663 12.0285C73.534 11.6297 59.0141 15.6023 46.5428 23.4437C34.0715 31.2852 24.2088 42.6434 18.2019 56.0821C12.1951 69.5208 10.3139 84.4363 12.7961 98.9426C15.2784 113.449 22.0128 126.894 32.1475 137.579C42.2823 148.263 55.3623 155.707 69.7336 158.968C84.1048 162.23 99.1218 161.162 112.886 155.901C122.025 152.408 130.385 147.152 137.49 140.432C144.594 133.712 150.304 125.661 154.292 116.738C158.281 107.814 160.47 98.1941 160.735 88.426C161.001 78.6579 159.336 68.9333 155.838 59.8075Z" fill="#CFCFCF"/>
<path opacity="0.104" d="M156.402 60.3477C151.135 46.6106 141.908 34.7415 129.886 26.2413C117.864 17.741 103.588 12.9915 88.8631 12.5931C74.138 12.1948 59.6254 16.1657 47.1604 24.0035C34.6954 31.8414 24.8378 43.1942 18.8342 56.6264C12.8307 70.0586 10.9508 84.9669 13.4323 99.4659C15.9138 113.965 22.6452 127.404 32.7754 138.083C42.9055 148.761 55.9793 156.201 70.3436 159.46C84.7079 162.719 99.7174 161.652 113.474 156.393C122.608 152.901 130.964 147.647 138.065 140.931C145.166 134.214 150.872 126.167 154.858 117.248C158.845 108.33 161.033 98.7142 161.297 88.9512C161.562 79.1882 159.899 69.4687 156.402 60.3477Z" fill="#CCCCCC"/>
<path opacity="0.111" d="M156.966 60.8885C151.702 47.1585 142.479 35.2956 130.464 26.7998C118.448 18.304 104.179 13.5568 89.462 13.1587C74.7446 12.7606 60.2395 16.7294 47.7809 24.5632C35.3223 32.397 25.4699 43.7439 19.4694 57.1691C13.4689 70.5943 11.59 85.4949 14.0702 99.9864C16.5504 114.478 23.2782 127.91 33.4031 138.583C43.5279 149.256 56.5949 156.692 70.9518 159.95C85.3086 163.207 100.31 162.141 114.06 156.884C123.19 153.394 131.541 148.143 138.638 141.43C145.735 134.717 151.439 126.674 155.423 117.76C159.407 108.846 161.594 99.2353 161.859 89.4773C162.123 79.7193 160.461 70.0048 156.966 60.8885Z" fill="#CACACA"/>
<path opacity="0.118" d="M157.53 61.4287C152.269 47.7056 143.051 35.8485 131.042 27.3568C119.032 18.8651 104.771 14.1203 90.0606 13.7223C75.3506 13.3243 60.8527 17.291 48.4003 25.1208C35.9479 32.9506 26.1003 44.2918 20.1028 57.7103C14.1053 71.1288 12.2272 86.0218 14.7061 100.506C17.185 114.99 23.9094 128.415 34.0292 139.084C44.1489 149.752 57.2094 157.184 71.5591 160.44C85.9087 163.696 100.903 162.629 114.646 157.376C133.074 150.331 147.945 136.265 155.988 118.271C164.03 100.278 164.585 79.8307 157.53 61.4287Z" fill="#C8C8C8"/>
<path opacity="0.125" d="M161.221 104.628C170.092 64.6009 144.789 24.9716 104.705 16.1132C64.6201 7.25475 24.9338 32.5218 16.0626 72.5487C7.19148 112.576 32.4949 152.205 72.5793 161.063C112.664 169.922 152.35 144.655 161.221 104.628Z" fill="#C5C5C5"/>
<path opacity="0.132" d="M161.918 104.605C170.525 64.5257 144.964 25.0684 104.827 16.4747C64.69 7.88096 25.176 33.4051 16.5699 73.4843C7.96381 113.564 33.5246 153.021 73.6615 161.615C113.798 170.208 153.312 144.684 161.918 104.605Z" fill="#C3C3C3"/>
<path opacity="0.139" d="M162.592 104.729C170.962 64.6205 145.186 25.3304 105.019 16.9727C64.8524 8.61492 25.5059 34.3544 17.1361 74.4634C8.76637 114.572 34.5428 153.862 74.7095 162.22C114.876 170.578 154.223 144.838 162.592 104.729Z" fill="#C0C0C0"/>
<path opacity="0.146" d="M163.213 104.823C171.333 64.694 145.337 25.59 105.15 17.4822C64.9624 9.37438 25.8022 35.3331 17.6827 75.4626C9.56328 115.592 35.5593 154.696 75.7465 162.804C115.934 170.912 155.094 144.953 163.213 104.823Z" fill="#BEBEBE"/>
<path opacity="0.152" d="M163.841 104.921C171.711 64.7709 145.496 25.8527 105.288 17.9946C65.0802 10.1365 26.1061 36.3142 18.2367 76.4641C10.3673 116.614 36.5827 155.532 76.7903 163.39C116.998 171.248 155.972 145.071 163.841 104.921Z" fill="#BCBCBC"/>
<path opacity="0.159" d="M164.531 104.885C172.126 64.6875 145.65 25.9527 105.395 18.3682C65.1401 10.7837 26.3496 37.2217 18.7542 77.4191C11.1588 117.616 37.6348 156.351 77.89 163.936C118.145 171.52 156.936 145.082 164.531 104.885Z" fill="#B9B9B9"/>
<path opacity="0.166" d="M165.178 104.943C172.515 64.7193 145.807 26.1724 105.525 18.8465C65.2434 11.5206 26.6412 38.1898 19.3047 78.4139C11.9683 118.638 38.6759 157.185 78.9577 164.511C119.24 171.837 157.842 145.167 165.178 104.943Z" fill="#B7B7B7"/>
<path opacity="0.173" d="M165.841 105.01C172.921 64.7585 145.983 26.3968 105.673 19.3272C65.3634 12.2576 26.9466 39.1571 19.8668 79.409C12.7871 119.661 39.7252 158.022 80.035 165.092C120.345 172.162 158.761 145.262 165.841 105.01Z" fill="#B5B5B5"/>
<path opacity="0.18" d="M166.468 105.05C173.28 64.7764 146.107 26.6139 105.776 19.8115C65.4443 13.0092 27.227 40.1429 20.4148 80.4164C13.6027 120.69 40.7754 158.852 81.1068 165.655C121.438 172.457 159.656 145.323 166.468 105.05Z" fill="#B2B2B2"/>
<path opacity="0.187" d="M167.108 105.095C173.654 64.7985 146.247 26.8329 105.893 20.2962C65.5389 13.7595 27.5186 41.1271 20.9726 81.4234C14.4265 121.72 41.8334 159.685 82.1876 166.222C122.542 172.759 160.562 145.391 167.108 105.095Z" fill="#B0B0B0"/>
<path opacity="0.194" d="M167.747 105.139C174.025 64.8216 146.384 27.0552 106.009 20.7856C65.6333 14.516 27.8127 42.1174 21.5341 82.4349C15.2554 122.752 42.8965 160.519 83.272 166.788C123.647 173.058 161.468 145.457 167.747 105.139Z" fill="#ADADAD"/>
<path opacity="0.201" d="M168.382 105.177C174.391 64.8394 146.514 27.2757 106.119 21.276C65.7233 15.2763 28.1056 43.1126 22.0973 83.4501C16.089 123.788 43.9653 161.351 84.3608 167.351C124.756 173.351 162.374 145.514 168.382 105.177Z" fill="#ABABAB"/>
<path opacity="0.208" d="M169.015 105.213C174.752 64.8572 146.64 27.4986 106.227 21.7702C65.8128 16.0418 28.4005 44.1129 22.6638 84.4686C16.9272 124.824 45.0386 162.183 85.4524 167.911C125.866 173.64 163.279 145.569 169.015 105.213Z" fill="#A9A9A9"/>
<path opacity="0.215" d="M169.645 105.242C175.107 64.8696 146.759 27.7195 106.328 22.2652C65.8978 16.8109 28.6943 45.1178 23.2321 85.4905C17.77 125.863 46.1176 163.013 86.5483 168.467C126.979 173.922 164.182 145.615 169.645 105.242Z" fill="#A6A6A6"/>
<path opacity="0.222" d="M170.272 105.273C175.459 64.885 146.876 27.9454 106.43 22.7659C65.9846 17.5864 28.9919 46.1283 23.805 86.516C18.618 126.904 47.2009 163.843 87.6467 169.023C128.093 174.202 165.085 145.661 170.272 105.273Z" fill="#A4A4A4"/>
<path opacity="0.229" d="M170.896 105.297C175.805 64.8953 146.985 28.1697 106.526 23.2677C66.0665 18.3657 29.2881 47.1436 24.3791 87.545C19.4701 127.946 48.2894 164.672 88.7487 169.574C129.208 174.476 165.987 145.698 170.896 105.297Z" fill="#A2A2A2"/>
<path opacity="0.236" d="M171.516 105.318C176.146 64.9049 147.091 28.3958 106.62 23.7728C66.1483 19.1497 29.5868 48.1633 24.9571 88.5764C20.3273 128.99 49.3826 165.499 89.8539 170.122C130.325 174.745 166.887 145.731 171.516 105.318Z" fill="#9F9F9F"/>
<path opacity="0.243" d="M172.134 105.337C176.483 64.9141 147.192 28.6241 106.711 24.2813C66.2296 19.9384 29.8874 49.1874 25.5384 89.6105C21.1893 130.034 50.4802 166.324 90.9615 170.667C131.443 175.009 167.785 145.76 172.134 105.337Z" fill="#9D9D9D"/>
<path opacity="0.25" d="M172.754 105.363C176.824 64.9309 147.299 28.8604 106.809 24.7969C66.3193 20.7334 30.1969 50.2157 26.1276 90.6474C22.0582 131.079 51.5829 167.15 92.0728 171.213C132.563 175.277 168.685 145.794 172.754 105.363Z" fill="#9A9A9A"/>
<path opacity="0.256" d="M173.407 105.341C177.189 64.89 147.416 29.0359 106.907 25.2588C66.3973 21.4818 30.4916 51.212 26.7091 91.6633C22.9266 132.114 52.6996 167.969 93.209 171.746C133.718 175.523 169.624 145.792 173.407 105.341Z" fill="#989898"/>
<path opacity="0.263" d="M173.966 105.381C177.465 64.9383 147.469 29.3215 106.968 25.8281C66.468 22.3346 30.7999 52.2875 27.3015 92.7297C23.803 133.172 53.799 168.789 94.2993 172.282C134.8 175.776 170.468 145.823 173.966 105.381Z" fill="#969696"/>
<path opacity="0.27" d="M174.572 105.393C177.785 64.948 147.556 29.5599 107.053 26.3512C66.5498 23.1426 31.1108 53.3285 27.8975 93.7732C24.6843 134.218 54.9135 169.606 95.4165 172.815C135.919 176.023 171.358 145.838 174.572 105.393Z" fill="#939393"/>
<path opacity="0.277" d="M175.172 105.4C178.098 64.9545 147.635 29.7983 107.132 26.8764C66.628 23.9545 31.4213 54.3734 28.4952 94.819C25.5691 135.265 56.0318 170.421 96.5355 173.343C137.039 176.265 172.246 145.846 175.172 105.4Z" fill="#919191"/>
<path opacity="0.284" d="M175.769 105.407C178.408 64.9623 147.713 30.04 107.21 27.4054C66.7078 24.7709 31.7353 55.4218 29.0969 95.8661C26.4586 136.31 57.1535 171.233 97.656 173.867C138.158 176.502 173.131 145.851 175.769 105.407Z" fill="#8F8F8F"/>
<path opacity="0.291" d="M176.321 105.446C178.674 65.0183 147.761 30.3401 107.275 27.9906C66.7883 25.641 32.0603 56.5099 29.7074 96.938C27.3545 137.366 58.2677 172.044 98.754 174.394C139.24 176.743 173.968 145.875 176.321 105.446Z" fill="#8C8C8C"/>
<path opacity="0.298" d="M176.953 105.415C179.013 64.9789 147.857 30.531 107.363 28.4734C66.8685 26.4158 32.3712 57.5276 30.3106 97.9636C28.2501 138.4 59.4066 172.847 99.9006 174.905C140.395 176.963 174.892 145.851 176.953 105.415Z" fill="#8A8A8A"/>
<path opacity="0.305" d="M177.54 105.419C179.311 64.9905 147.926 30.7827 107.439 29.014C66.952 27.2454 32.6951 58.5855 30.9238 99.0141C29.1526 139.443 60.5378 173.651 101.025 175.419C141.511 177.188 175.768 145.848 177.54 105.419Z" fill="#878787"/>
<path opacity="0.312" d="M178.122 105.422C179.604 65.0031 147.991 31.0375 107.513 29.5582C67.036 28.0789 33.0216 59.6461 31.5402 100.066C30.0588 140.485 61.6713 174.45 102.149 175.93C142.626 177.409 176.641 145.842 178.122 105.422Z" fill="#858585"/>
<path opacity="0.319" d="M178.701 105.424C179.892 65.0163 148.053 31.2949 107.587 30.1055C67.1212 28.9161 33.3514 60.7091 32.1603 101.117C30.9691 141.525 62.8078 175.247 103.274 176.436C143.74 177.625 177.51 145.832 178.701 105.424Z" fill="#838383"/>
<path opacity="0.326" d="M179.293 105.369C180.183 64.9647 148.103 31.4897 107.641 30.6008C67.1779 29.7119 33.6548 61.7457 32.7646 102.15C31.8744 142.555 63.9543 176.03 104.417 176.919C144.88 177.808 178.403 145.774 179.293 105.369Z" fill="#808080"/>
<path opacity="0.333" d="M179.847 105.428C180.458 65.0489 148.172 31.8209 107.735 31.2112C67.2977 30.6016 34.0219 62.8411 33.4114 103.22C32.8009 143.599 65.0868 176.827 105.524 177.437C145.961 178.047 179.237 145.807 179.847 105.428Z" fill="#7E7E7E"/>
<path opacity="0.34" d="M180.425 105.439C180.748 65.0759 148.243 32.0936 107.822 31.7707C67.4012 31.4478 34.3715 63.9066 34.0481 104.269C33.7247 144.632 66.2302 177.615 106.651 177.937C147.072 178.26 180.102 145.802 180.425 105.439Z" fill="#7C7C7C"/>
<path opacity="0.347" d="M107.828 178.423C148.228 178.423 180.979 145.719 180.979 105.377C180.979 65.0354 148.228 32.3318 107.828 32.3318C67.4284 32.3318 34.6778 65.0354 34.6778 105.377C34.6778 145.719 67.4284 178.423 107.828 178.423Z" fill="#797979"/>
<path opacity="0.353" d="M108.897 178.912C149.275 178.653 181.799 145.758 181.54 105.437C181.281 65.1167 148.339 32.6399 107.96 32.8981C67.5816 33.1564 35.058 66.052 35.3167 106.373C35.5753 146.693 68.5182 179.17 108.897 178.912Z" fill="#777777"/>
<path opacity="0.36" d="M110.018 179.396C150.373 178.85 182.643 145.74 182.096 105.443C181.549 65.1461 148.391 32.9222 108.036 33.4687C67.6817 34.0152 35.4115 67.1252 35.9588 107.422C36.5061 147.719 69.6636 179.943 110.018 179.396Z" fill="#747474"/>
<path opacity="0.367" d="M111.197 179.885C151.535 179.039 183.548 145.7 182.7 105.421C181.853 65.142 148.467 33.175 108.13 34.0209C67.7927 34.8667 35.7797 68.2052 36.6268 108.484C37.4739 148.764 70.8603 180.731 111.197 179.885Z" fill="#727272"/>
<path opacity="0.374" d="M112.26 180.351C152.56 179.23 184.32 145.698 183.197 105.455C182.074 65.2122 148.494 33.498 108.193 34.6192C67.8928 35.7405 36.1331 69.2726 37.2559 109.515C38.3788 149.758 71.9591 181.472 112.26 180.351Z" fill="#707070"/>
<path opacity="0.381" d="M113.378 180.823C153.648 179.416 185.152 145.677 183.743 105.464C182.333 65.2511 148.545 33.7929 108.275 35.1999C68.0041 36.607 36.5007 70.3466 37.9098 110.559C39.3189 150.772 73.1069 182.23 113.378 180.823Z" fill="#6D6D6D"/>
<path opacity="0.388" d="M114.493 181.293C154.732 179.601 185.978 145.656 184.284 105.476C182.59 65.2947 148.596 34.0931 108.358 35.7849C68.1189 37.4767 36.8725 71.4212 38.5667 111.602C40.261 151.783 74.2543 182.985 114.493 181.293Z" fill="#6B6B6B"/>
<path opacity="0.395" d="M115.607 181.758C155.812 179.783 186.801 145.636 184.822 105.489C182.844 65.3417 148.648 34.3975 108.443 36.3729C68.2384 38.3484 37.2498 72.4954 39.2281 112.642C41.2064 152.789 75.4025 183.734 115.607 181.758Z" fill="#696969"/>
<path opacity="0.402" d="M116.717 182.221C156.886 179.964 187.617 145.617 185.356 105.506C183.096 65.3947 148.7 34.7081 108.531 36.9654C68.3622 39.2227 37.6314 73.5692 39.8919 113.68C42.1525 153.792 76.5484 184.478 116.717 182.221Z" fill="#666666"/>
<path opacity="0.409" d="M117.795 182.695C157.926 180.165 188.405 145.628 185.872 105.555C183.339 65.4811 148.752 35.0459 108.621 37.5756C68.49 40.1053 38.011 74.642 40.5443 114.715C43.0777 154.789 77.664 185.224 117.795 182.695Z" fill="#646464"/>
<path opacity="0.416" d="M118.933 183.134C159.024 180.316 189.237 145.578 186.415 105.544C183.593 65.5106 148.805 35.3409 108.714 38.1586C68.6227 40.9763 38.4096 75.7144 41.2314 115.748C44.0531 155.782 78.8411 185.952 118.933 183.134Z" fill="#616161"/>
<path opacity="0.423" d="M120.034 183.587C160.084 180.492 190.038 145.563 186.939 105.57C183.84 65.578 148.861 35.6665 108.811 38.7614C68.7607 41.8562 38.8063 76.7853 41.9055 116.778C45.0048 156.77 79.9841 186.682 120.034 183.587Z" fill="#5F5F5F"/>
<path opacity="0.43" d="M121.134 184.035C161.141 180.664 190.836 145.546 187.461 105.597C184.085 65.648 148.917 35.9954 108.91 39.3662C68.9036 42.737 39.2084 77.8547 42.584 117.804C45.9596 157.753 81.1278 187.406 121.134 184.035Z" fill="#5D5D5D"/>
<path opacity="0.437" d="M122.231 184.48C162.193 180.835 191.629 145.531 187.979 105.627C184.328 65.7233 148.974 36.3294 109.013 39.9743C69.0514 43.6192 39.6152 78.9226 43.2654 118.827C46.9155 158.731 82.2697 188.125 122.231 184.48Z" fill="#5A5A5A"/>
<path opacity="0.444" d="M123.323 184.922C163.238 181.006 192.415 145.52 188.493 105.663C184.571 65.8053 149.035 36.6695 109.12 40.586C69.2053 44.5024 40.0276 79.9881 43.9497 119.845C47.8718 159.703 83.4085 188.839 123.323 184.922Z" fill="#585858"/>
<path opacity="0.45" d="M124.508 185.401C164.393 181.198 193.314 145.504 189.105 105.676C184.896 65.8476 149.151 36.9676 109.265 41.1706C69.3798 45.3735 40.4583 81.0679 44.6673 120.896C48.8763 160.724 84.622 189.604 124.508 185.401Z" fill="#565656"/>
<path opacity="0.457" d="M125.465 185.853C165.289 181.412 193.968 145.574 189.521 105.807C185.074 66.0392 149.185 37.4013 109.36 41.8421C69.5354 46.283 40.8564 82.1208 45.3036 121.888C49.7508 161.656 85.6402 190.294 125.465 185.853Z" fill="#535353"/>
<path opacity="0.464" d="M126.573 186.231C166.337 181.512 194.741 145.498 190.016 105.792C185.291 66.0851 149.225 37.7216 109.462 42.44C69.698 47.1584 41.2936 83.172 46.0188 122.879C50.744 162.585 86.8095 190.949 126.573 186.231Z" fill="#515151"/>
<path opacity="0.471" d="M127.653 186.662C167.364 181.68 195.511 145.495 190.522 105.841C185.533 66.1871 149.296 38.08 109.586 43.062C69.8746 48.0441 41.7271 84.2287 46.7163 123.883C51.7055 163.537 87.9421 191.644 127.653 186.662Z" fill="#4E4E4E"/>
<path opacity="0.478" d="M128.726 187.089C168.382 181.846 196.273 145.494 191.023 105.895C185.773 66.2958 149.369 38.4445 109.713 43.6874C70.0564 48.9302 42.1651 85.2819 47.4155 124.881C52.6659 164.48 89.0698 192.332 128.726 187.089Z" fill="#4C4C4C"/>
<path opacity="0.485" d="M129.792 187.515C169.391 182.015 197.028 145.5 191.52 105.957C186.012 66.4136 149.444 38.8165 109.844 44.3169C70.2441 49.8174 42.6073 86.3324 48.1157 125.876C53.624 165.419 90.1915 193.016 129.792 187.515Z" fill="#4A4A4A"/>
<path opacity="0.492" d="M130.855 187.938C170.397 182.182 197.78 145.506 192.016 106.02C186.251 66.5346 149.523 39.1915 109.98 44.9476C70.438 50.7037 43.0556 87.3793 48.8199 126.865C54.5843 166.351 91.3127 193.694 130.855 187.938Z" fill="#474747"/>
<path opacity="0.499" d="M131.914 188.357C171.398 182.348 198.527 145.515 192.509 106.088C186.491 66.6612 149.605 39.5709 110.122 45.5801C70.6383 51.5893 43.5091 88.4224 49.527 127.849C55.5448 167.276 92.4308 194.366 131.914 188.357Z" fill="#454545"/>
<path opacity="0.506" d="M132.966 188.776C172.39 182.517 199.267 145.53 192.999 106.163C186.731 66.7962 149.691 39.9572 110.268 46.2162C70.8446 52.4752 43.9669 89.4621 50.2349 128.829C56.5029 168.195 93.5431 195.035 132.966 188.776Z" fill="#434343"/>
<path opacity="0.513" d="M134 189.276C173.379 182.782 200.029 145.64 193.526 106.318C187.023 66.9956 149.828 40.383 110.449 46.8769C71.0704 53.3709 44.4195 90.5123 50.9228 129.835C57.4261 169.157 94.6209 195.77 134 189.276Z" fill="#404040"/>
<path opacity="0.52" d="M135.057 189.606C174.356 182.855 200.734 145.569 193.973 106.326C187.213 67.0834 149.874 40.7435 110.575 47.4944C71.2753 54.2453 44.8974 91.5307 51.6581 130.774C58.4187 170.016 95.7576 196.356 135.057 189.606Z" fill="#3E3E3E"/>
<path opacity="0.527" d="M136.106 189.931C175.324 182.927 201.43 145.502 194.416 106.34C187.401 67.1785 149.922 41.11 110.704 48.1145C71.4861 55.119 45.3801 92.5441 52.3947 131.706C59.4093 170.867 96.8882 196.936 136.106 189.931Z" fill="#3B3B3B"/>
<path opacity="0.534" d="M137.133 190.364C176.29 183.124 202.156 145.558 194.907 106.456C187.657 67.355 150.036 41.5259 110.878 48.7654C71.7209 56.0049 45.8546 93.5716 53.1046 132.673C60.3545 171.774 97.9751 197.603 137.133 190.364Z" fill="#393939"/>
<path opacity="0.541" d="M138.155 190.835C177.26 183.368 202.899 145.659 195.421 106.609C187.943 67.5604 150.179 41.9584 111.074 49.4258C71.969 56.8932 46.3302 94.6022 53.8083 133.651C61.2864 172.7 99.0496 198.302 138.155 190.835Z" fill="#373737"/>
<path opacity="0.548" d="M139.204 191.22C178.241 183.511 203.629 145.661 195.909 106.681C188.189 67.7 150.285 42.349 111.248 50.0577C72.2117 57.7665 46.8242 95.6158 54.5441 134.597C62.2639 173.577 100.168 198.928 139.204 191.22Z" fill="#343434"/>
<path opacity="0.554" d="M140.193 191.646C179.164 183.716 204.318 145.741 196.377 106.826C188.435 67.9106 150.405 42.7923 111.434 50.7224C72.4633 58.6525 47.3089 96.628 55.2504 135.543C63.1919 174.458 101.222 199.576 140.193 191.646Z" fill="#323232"/>
<path opacity="0.561" d="M141.157 192.134C180.073 183.997 205.015 145.898 196.866 107.037C188.717 68.177 150.563 43.271 111.647 51.4082C72.7307 59.5455 47.7889 97.6446 55.9378 136.505C64.0868 175.365 102.241 200.271 141.157 192.134Z" fill="#303030"/>
<path opacity="0.568" d="M142.207 192.451C181.04 184.071 205.717 145.842 197.325 107.064C188.933 68.2866 150.649 43.6449 111.815 52.0254C72.9821 60.4058 48.305 98.6349 56.6975 137.412C65.09 176.19 103.374 200.831 142.207 192.451Z" fill="#2D2D2D"/>
<path opacity="0.575" d="M143.209 192.85C181.972 184.248 206.413 145.896 197.798 107.189C189.184 68.4812 150.777 44.0757 112.014 52.6775C73.251 61.2793 48.8104 99.6311 57.4246 138.339C66.0387 177.046 104.446 201.452 143.209 192.85Z" fill="#2B2B2B"/>
<path opacity="0.582" d="M144.275 193.228C182.97 184.39 207.165 145.901 198.314 107.261C189.464 68.6212 150.92 44.4616 112.224 53.2993C73.5287 62.137 49.3344 100.625 58.1848 139.265C67.0351 177.906 105.579 202.065 144.275 193.228Z" fill="#282828"/>
<path opacity="0.589" d="M145.207 193.704C183.842 184.673 207.831 146.077 198.787 107.497C189.743 68.9166 151.091 44.9623 112.455 53.9934C73.8195 63.0245 49.8308 101.621 58.8749 140.201C67.9189 178.781 106.571 202.736 145.207 193.704Z" fill="#262626"/>
<path opacity="0.596" d="M146.176 194.045C184.725 184.799 208.47 146.098 199.211 107.603C189.951 69.1092 151.195 45.3987 112.645 54.6446C74.0955 63.8906 50.3509 102.592 59.6101 141.086C68.8694 179.58 107.626 203.291 146.176 194.045Z" fill="#242424"/>
<path opacity="0.603" d="M147.159 194.432C185.635 184.975 209.149 146.162 199.678 107.742C190.208 69.3211 151.34 45.8412 112.864 55.298C74.3878 64.7548 50.8742 103.567 60.3446 141.988C69.8149 180.409 108.683 203.888 147.159 194.432Z" fill="#212121"/>
<path opacity="0.61" d="M148.125 194.836C186.529 185.177 209.82 146.258 200.147 107.908C190.473 69.5588 151.498 46.3013 113.093 55.961C74.6889 65.6208 51.3979 104.54 61.0715 142.889C70.7451 181.239 109.72 204.496 148.125 194.836Z" fill="#1F1F1F"/>
<path opacity="0.617" d="M149.091 195.232C187.422 185.37 210.489 146.346 200.613 108.07C190.737 69.7936 151.658 46.7591 113.326 56.621C74.9948 66.4828 51.9272 105.507 61.8033 143.783C71.6793 182.059 110.759 205.094 149.091 195.232Z" fill="#1D1D1D"/>
<path opacity="0.624" d="M150.052 195.625C188.31 185.563 211.155 146.437 201.079 108.234C191.003 70.0317 151.821 47.2188 113.564 57.2803C75.306 67.3418 52.4603 106.468 62.5362 144.67C72.6122 182.873 111.794 205.686 150.052 195.625Z" fill="#1A1A1A"/>
<path opacity="0.631" d="M151.062 196.051C189.258 185.785 211.889 146.542 201.608 108.4C191.328 70.2583 152.029 47.6602 113.832 57.9262C75.6347 68.1922 53.0042 107.435 63.2849 145.577C73.5657 183.719 112.865 206.317 151.062 196.051Z" fill="#181818"/>
<path opacity="0.638" d="M151.961 196.356C190.059 185.898 212.453 146.58 201.98 108.537C191.507 70.4941 152.133 48.132 114.036 58.5898C75.9379 69.0477 53.5436 108.365 64.0165 146.408C74.4894 184.451 113.864 206.814 151.961 196.356Z" fill="#151515"/>
<path opacity="0.645" d="M152.938 196.799C190.976 186.15 213.166 146.725 202.501 108.742C191.836 70.7581 152.355 48.5997 114.317 59.2492C76.2789 69.8988 54.0886 109.324 64.7534 147.307C75.4183 185.29 114.9 207.449 152.938 196.799Z" fill="#131313"/>
<path opacity="0.651" d="M153.92 197.238C191.898 186.397 213.885 146.865 203.028 108.941C192.171 71.0172 152.583 49.0622 114.605 59.9032C76.6262 70.7442 54.6397 110.276 65.4963 148.2C76.3529 186.124 115.941 208.079 153.92 197.238Z" fill="#111111"/>
<path opacity="0.658" d="M154.775 197.584C192.66 186.571 214.431 146.976 203.402 109.145C192.374 71.3149 152.721 49.575 114.836 60.588C76.9513 71.601 55.1801 111.196 66.2089 149.027C77.2378 186.858 116.89 208.597 154.775 197.584Z" fill="#0E0E0E"/>
<path opacity="0.665" d="M155.702 197.977C193.512 186.784 215.076 147.102 203.866 109.347C192.656 71.5911 152.918 50.0584 115.108 61.2522C77.2978 72.446 55.7341 112.127 66.944 149.883C78.1539 187.639 117.892 209.171 155.702 197.977Z" fill="#0C0C0C"/>
<path opacity="0.672" d="M156.625 198.368C194.359 186.996 215.717 147.231 204.329 109.551C192.94 71.8701 153.118 50.543 115.384 61.9151C77.649 73.2872 56.2912 113.052 67.6796 150.733C79.0681 188.413 118.89 209.74 156.625 198.368Z" fill="#0A0A0A"/>
<path opacity="0.679" d="M157.544 198.757C195.203 187.209 216.357 147.363 204.792 109.758C193.228 72.1527 153.324 51.0293 115.665 62.5773C78.0059 74.1253 56.8521 113.972 68.4167 151.577C79.9813 189.182 119.885 210.305 157.544 198.757Z" fill="#070707"/>
<path opacity="0.686" d="M158.455 199.149C196.039 187.429 216.992 147.503 205.255 109.974C193.518 72.4437 153.536 51.5208 115.952 63.241C78.3681 74.9612 57.4151 114.886 69.1521 152.416C80.8892 189.946 120.872 210.869 158.455 199.149Z" fill="#050505"/>
<path opacity="0.693" d="M159.363 199.539C196.871 187.649 217.625 147.648 205.718 110.193C193.811 72.7388 153.752 52.0146 116.244 63.9045C78.7354 75.7944 57.9814 115.796 69.8884 153.25C81.7954 190.705 121.854 211.429 159.363 199.539Z" fill="#020202"/>
<path opacity="0.7" d="M160.264 199.93C197.697 187.873 218.255 147.798 206.181 110.419C194.107 73.0393 153.974 52.5113 116.541 64.5679C79.1079 76.6245 58.5503 116.7 70.6242 154.079C82.6981 191.459 122.831 211.987 160.264 199.93Z" fill="black"/>
</g>
<path d="M196.929 194.018C231.21 159.787 231.21 104.286 196.929 70.0543C162.648 35.8225 107.068 35.8225 72.787 70.0543C38.506 104.286 38.506 159.787 72.787 194.018C107.068 228.25 162.648 228.25 196.929 194.018Z" fill="url(#paint0_linear_116_233)"/>
<path d="M134.858 215.939C181.263 215.939 218.882 178.375 218.882 132.036C218.882 85.6971 181.263 48.1321 134.858 48.1321C88.4528 48.1321 50.8339 85.6971 50.8339 132.036C50.8339 178.375 88.4528 215.939 134.858 215.939Z" fill="#F1F1F1"/>
<path d="M133.273 113.397C136.585 113.397 139.269 110.716 139.269 107.409C139.269 104.102 136.585 101.421 133.273 101.421C129.961 101.421 127.276 104.102 127.276 107.409C127.276 110.716 129.961 113.397 133.273 113.397Z" fill="#E87F18"/>
<path d="M166.624 117.17L133.889 90.1075C133.715 89.9663 133.498 89.8892 133.274 89.8892C133.05 89.8892 132.832 89.9663 132.658 90.1075L99.9231 117.17C99.7797 117.289 99.6775 117.451 99.631 117.632C99.5846 117.813 99.5962 118.004 99.6642 118.178C99.7322 118.352 99.8532 118.5 100.01 118.602C100.167 118.703 100.352 118.753 100.539 118.744H166.009C166.195 118.753 166.38 118.703 166.537 118.602C166.694 118.5 166.815 118.352 166.883 118.178C166.951 118.004 166.963 117.813 166.916 117.632C166.87 117.451 166.768 117.289 166.624 117.17ZM133.273 115.048C131.763 115.048 130.287 114.601 129.032 113.763C127.776 112.926 126.798 111.735 126.22 110.342C125.642 108.949 125.491 107.417 125.786 105.938C126.08 104.459 126.807 103.101 127.875 102.035C128.943 100.969 130.303 100.243 131.784 99.949C133.264 99.6549 134.799 99.806 136.194 100.383C137.589 100.96 138.781 101.937 139.62 103.191C140.459 104.444 140.906 105.918 140.906 107.426C140.906 109.447 140.102 111.386 138.67 112.815C137.239 114.244 135.297 115.047 133.273 115.047L133.273 115.048Z" fill="#F69121"/>
<path d="M133.273 110.931C135.221 110.931 136.8 109.354 136.8 107.409C136.8 105.463 135.221 103.886 133.273 103.886C131.324 103.886 129.745 105.463 129.745 107.409C129.745 109.354 131.324 110.931 133.273 110.931Z" fill="#F69121"/>
<path d="M115.931 120.094H106.331V123.884H115.931V120.094Z" fill="#E87F18"/>
<path d="M130.692 120.094H121.092V123.884H130.692V120.094Z" fill="#E87F18"/>
<path d="M145.453 120.094H135.853V123.884H145.453V120.094Z" fill="#E87F18"/>
<path d="M160.219 120.094H150.619V123.884H160.219V120.094Z" fill="#E87F18"/>
<path d="M115.931 154.035H106.331V157.826H115.931V154.035Z" fill="#E87F18"/>
<path d="M130.692 154.035H121.092V157.826H130.692V154.035Z" fill="#E87F18"/>
<path d="M145.453 154.035H135.853V157.826H145.453V154.035Z" fill="#E87F18"/>
<path d="M160.219 154.035H150.619V157.826H160.219V154.035Z" fill="#E87F18"/>
<path d="M114.723 123.887H107.539V154.034H114.723V123.887Z" fill="#F69121"/>
<path d="M129.483 123.887H122.299V154.034H129.483V123.887Z" fill="#F69121"/>
<path d="M144.249 123.887H137.065V154.034H144.249V123.887Z" fill="#F69121"/>
<path d="M159.004 123.887H151.819V154.034H159.004V123.887Z" fill="#F69121"/>
<path d="M99.4723 164.909H164.739C165.016 164.909 165.282 165.019 165.478 165.215C165.674 165.41 165.784 165.676 165.784 165.952V169.393H98.4276V165.952C98.4276 165.675 98.5377 165.41 98.7336 165.215C98.9295 165.019 99.1952 164.909 99.4723 164.909Z" fill="#EF8720"/>
<path d="M102.615 159.125H161.596C161.873 159.125 162.138 159.235 162.334 159.431C162.53 159.627 162.64 159.892 162.64 160.169V163.609H101.572V160.169C101.572 159.892 101.682 159.627 101.877 159.431C102.073 159.236 102.339 159.126 102.615 159.125Z" fill="#F69121"/>
</g>
<defs>
<linearGradient id="paint0_linear_116_233" x1="-4134.15" y1="-3853.66" x2="-3953.16" y2="-3834.76" gradientUnits="userSpaceOnUse">
<stop stop-color="white"/>
<stop offset="0.997" stop-color="#D5D4D4"/>
</linearGradient>
<clipPath id="clip0_116_233">
<rect width="259" height="256" fill="white"/>
</clipPath>
</defs>
</svg>
