<svg width="260" height="257" viewBox="0 0 260 257" fill="none" xmlns="http://www.w3.org/2000/svg">
<g clip-path="url(#clip0_116_2)">
<path d="M136.178 36.3552V60.6874C126.628 60.6874 117.171 62.5662 108.348 66.2165C99.5253 69.8668 91.5085 75.2171 84.7557 81.9619C78.0029 88.7068 72.6463 96.7141 68.9917 105.527C65.3371 114.339 63.4561 123.785 63.4561 133.323C63.4561 142.862 65.3371 152.307 68.9917 161.12C72.6463 169.932 78.0029 177.94 84.7557 184.684C91.5085 191.429 99.5253 196.78 108.348 200.43C117.171 204.08 126.628 205.959 136.178 205.959V230.291C82.6458 230.291 39.0944 186.792 39.0944 133.323C39.0944 79.8542 82.6458 36.3552 136.178 36.3552Z" fill="#E3E3E3"/>
<path d="M136.178 36.3552V60.6874C145.728 60.6874 155.184 62.5662 164.007 66.2165C172.83 69.8668 180.847 75.2171 187.599 81.9619C194.352 88.7068 199.709 96.7141 203.363 105.527C207.018 114.339 208.899 123.785 208.899 133.323C208.899 142.862 207.018 152.307 203.363 161.12C199.709 169.932 194.352 177.94 187.599 184.684C180.847 191.429 172.83 196.78 164.007 200.43C155.184 204.08 145.728 205.959 136.178 205.959V230.291C189.709 230.291 233.26 186.792 233.26 133.323C233.26 79.8542 189.709 36.3552 136.178 36.3552Z" fill="#1A3F70"/>
<g opacity="0.11">
<path opacity="0.01" d="M149.79 54.2525C144.499 40.4496 135.23 28.5237 123.153 19.9827C111.077 11.4418 96.7365 6.66941 81.9447 6.26915C67.153 5.86889 52.5746 9.8587 40.0531 17.7341C27.5315 25.6094 17.6293 37.0166 11.5984 50.5131C5.56762 64.0096 3.67913 78.9892 6.17177 93.5578C8.66441 108.126 15.4262 121.629 25.6022 132.359C35.7781 143.09 48.9111 150.565 63.3404 153.84C77.7697 157.115 92.8473 156.042 106.666 150.758C115.842 147.25 124.236 141.971 131.369 135.222C138.502 128.473 144.234 120.387 148.239 111.426C152.243 102.465 154.441 92.8032 154.707 82.9933C154.973 73.1834 153.302 63.4173 149.79 54.2525Z" fill="#EEEEEE"/>
<path opacity="0.014" d="M150.352 54.792C145.064 40.9961 135.8 29.0761 123.73 20.5394C111.659 12.0027 97.3259 7.23267 82.5416 6.83256C67.7573 6.43244 53.1863 10.4202 40.671 18.2915C28.1558 26.1629 18.2585 37.5643 12.2307 51.054C6.20288 64.5437 4.31532 79.5158 6.80668 94.077C9.29805 108.638 16.0565 122.134 26.2273 132.859C36.3981 143.584 49.5244 151.055 63.9465 154.329C78.3686 157.602 93.4385 156.53 107.251 151.249C125.772 144.167 140.719 130.025 148.802 111.936C156.885 93.8472 157.442 73.2918 150.352 54.792Z" fill="#EBEBEB"/>
<path opacity="0.021" d="M150.915 55.331C145.63 41.5419 136.369 29.6277 124.305 21.0953C112.241 12.5628 97.9146 7.79528 83.1376 7.39551C68.3606 6.99574 53.7968 10.9817 41.2879 18.8494C28.7789 26.7171 18.8867 38.113 12.8622 51.5962C6.8377 65.0794 4.95148 80.0441 7.44205 94.598C9.93263 109.152 16.6881 122.641 26.8543 133.36C37.0205 144.079 50.1407 151.547 64.5558 154.818C78.9708 158.089 94.0333 157.017 107.838 151.737C126.35 144.658 141.288 130.524 149.366 112.445C157.444 94.3652 158.001 73.8208 150.915 55.331Z" fill="#E9E9E9"/>
<path opacity="0.028" d="M151.477 55.87C146.195 42.088 136.939 30.1801 124.881 21.6521C112.823 13.1241 98.5043 8.359 83.735 7.95938C68.9656 7.55976 54.4093 11.5436 41.9068 19.407C29.4042 27.2705 19.517 38.6604 13.4953 52.1365C7.47371 65.6126 5.58814 80.5695 8.07707 95.116C10.566 109.662 17.3176 123.145 27.4782 133.859C37.6388 144.573 50.7519 152.036 65.1594 155.306C79.5669 158.576 94.6217 157.506 108.42 152.229C117.582 148.726 125.963 143.455 133.085 136.716C140.207 129.978 145.931 121.904 149.929 112.957C153.927 104.009 156.122 94.3621 156.387 84.5671C156.653 74.7721 154.984 65.0208 151.477 55.87Z" fill="#E6E6E6"/>
<path opacity="0.035" d="M152.04 56.4095C146.76 42.6346 137.509 30.733 125.457 22.2095C113.405 13.686 99.0932 8.92349 84.3314 8.52422C69.5696 8.12496 55.0208 12.1069 42.5247 19.9664C30.0286 27.8259 20.1465 39.2101 14.128 52.6793C8.10947 66.1486 6.22491 81.0979 8.7126 95.6369C11.2003 110.176 17.9485 123.652 28.1039 134.36C38.2592 145.068 51.3657 152.528 65.7658 155.797C80.1659 159.065 95.213 157.995 109.004 152.721C118.161 149.22 126.539 143.951 133.657 137.216C140.776 130.481 146.497 122.412 150.493 113.468C154.489 104.525 156.682 94.8826 156.948 85.0924C157.213 75.3023 155.545 65.5558 152.04 56.4095Z" fill="#E4E4E4"/>
<path opacity="0.042" d="M152.6 56.9484C147.323 43.1804 138.077 31.2845 126.032 22.765C113.986 14.2456 99.6815 9.48521 84.9272 9.08589C70.1728 8.68657 55.6311 12.6663 43.1412 20.5217C30.6513 28.3771 20.774 39.7554 14.7583 53.2178C8.7427 66.6802 6.85894 81.622 9.34525 96.1538C11.8316 110.686 18.5763 124.155 28.7265 134.858C38.8767 145.561 51.9766 153.017 66.3695 156.284C80.7624 159.55 95.8019 158.481 109.586 153.21C128.07 146.142 142.986 132.03 151.053 113.977C159.12 95.9247 159.676 75.4108 152.6 56.9484Z" fill="#E2E2E2"/>
<path opacity="0.049" d="M153.165 57.4874C147.891 43.7264 138.65 31.8365 126.61 23.3214C114.57 14.8064 100.273 10.0484 85.526 9.6494C70.7791 9.25036 56.2448 13.2281 43.7613 21.0796C31.2777 28.9311 21.4054 40.3037 15.3929 53.7594C9.3804 67.215 7.49767 82.1492 9.98281 96.6736C12.4679 111.198 19.2093 124.66 29.3545 135.358C39.4996 146.055 52.5929 153.508 66.9785 156.773C81.3641 160.038 96.396 158.968 110.173 153.7C119.321 150.203 127.69 144.939 134.801 138.211C141.912 131.483 147.627 123.422 151.619 114.487C155.611 105.553 157.803 95.921 158.068 86.1409C158.333 76.3609 156.667 66.6244 153.165 57.4874Z" fill="#DFDFDF"/>
<path opacity="0.055" d="M153.728 58.0269C148.456 44.2728 139.219 32.3889 127.186 23.8781C115.152 15.3672 100.862 10.6117 86.1229 10.2128C71.3834 9.81389 56.8565 13.7896 44.3792 21.6371C31.9019 29.4846 22.0347 40.8514 16.0252 54.3002C10.0157 67.7491 8.13386 82.6758 10.6177 97.1928C13.1016 111.71 19.8396 125.165 29.9796 135.857C40.1196 146.549 53.2062 153.998 67.5846 157.261C81.963 160.525 96.9873 159.456 110.758 154.191C129.223 147.13 144.124 133.032 152.182 114.998C160.241 96.9635 160.797 76.4705 153.728 58.0269Z" fill="#DDDDDD"/>
<path opacity="0.062" d="M154.29 58.5659C149.021 44.8188 139.789 32.9409 127.762 24.4344C115.734 15.9279 101.452 11.1748 86.7197 10.7761C71.9877 10.3774 57.4682 14.3511 44.9972 22.1946C32.5263 30.0382 22.664 41.3993 16.6575 54.8412C10.6511 68.2832 8.77026 83.2024 11.2529 97.712C13.7355 112.222 20.47 125.67 30.6049 136.357C40.7398 147.044 53.8198 154.489 68.1908 157.75C82.5619 161.012 97.5785 159.944 111.342 154.681C129.798 147.624 144.691 133.533 152.746 115.508C160.8 97.4828 161.356 77.0002 154.29 58.5659Z" fill="#DBDBDB"/>
<path opacity="0.069" d="M154.853 59.1048C149.586 45.3647 140.359 33.4929 128.338 24.9908C116.316 16.4886 102.041 11.7379 87.3164 11.3394C72.5919 10.941 58.0798 14.9126 45.6152 22.7522C33.1506 30.5917 23.2933 41.9471 17.2899 55.3822C11.2865 68.8174 9.40663 83.7289 11.888 98.2312C14.3693 112.734 21.1005 126.175 31.2302 136.857C41.3599 147.538 54.4332 154.979 68.797 158.239C83.1608 161.499 98.1698 160.431 111.926 155.171C121.06 151.679 129.416 146.424 136.516 139.706C143.617 132.988 149.323 124.939 153.309 116.018C157.295 107.097 159.483 97.48 159.748 87.7148C160.013 77.9496 158.349 68.2279 154.853 59.1048Z" fill="#D8D8D8"/>
<path opacity="0.076" d="M155.416 59.6444C150.152 45.9112 140.93 34.0454 128.914 25.5475C116.899 17.0496 102.631 12.3013 87.9137 11.903C73.1966 11.5048 58.6918 15.4744 46.2335 23.31C33.7752 31.1456 23.923 42.4953 17.9226 55.9237C11.9223 69.352 10.0434 84.2561 12.5236 98.751C15.0038 113.246 21.7316 126.681 31.8562 137.357C41.9809 148.033 55.0477 155.47 69.4042 158.728C83.7607 161.986 98.7622 160.919 112.512 155.662C130.949 148.612 145.826 134.535 153.873 116.528C161.919 98.5215 162.474 78.0598 155.416 59.6444Z" fill="#D6D6D6"/>
<path opacity="0.083" d="M155.98 60.1833C150.719 46.4574 141.501 34.5979 129.492 26.1046C117.483 17.6112 103.222 12.8655 88.5124 12.4675C73.803 12.0695 59.3057 16.0372 46.8539 23.8687C34.4021 31.7001 24.5549 43.0438 18.5575 56.4651C12.5602 69.8864 10.6821 84.7827 13.1607 99.2701C15.6393 113.758 22.3633 127.186 32.4824 137.856C42.6015 148.527 55.6613 155.96 70.0102 159.218C84.3591 162.475 99.3528 161.409 113.095 156.154C122.22 152.666 130.568 147.416 137.662 140.705C144.755 133.993 150.456 125.952 154.438 117.04C158.42 108.129 160.606 98.5207 160.871 88.7651C161.135 79.0095 159.473 69.2974 155.98 60.1833Z" fill="#D3D3D3"/>
<path opacity="0.09" d="M156.541 60.7206C151.283 47.0014 142.069 35.1476 130.066 26.6584C118.063 18.1691 103.81 13.4256 89.1075 13.0277C74.4054 12.6299 59.9153 16.5954 47.4697 24.423C35.024 32.2506 25.1817 43.5887 19.1875 57.0034C13.1932 70.4181 11.3162 85.3069 13.7937 99.7871C16.2713 114.267 22.9921 127.689 33.1064 138.354C43.2207 149.019 56.2742 156.448 70.616 159.704C84.9579 162.959 99.9441 161.893 113.68 156.641C132.098 149.598 146.961 135.535 154.999 117.547C163.037 99.5585 163.592 79.1175 156.541 60.7206Z" fill="#D1D1D1"/>
<path opacity="0.097" d="M157.103 61.2618C151.848 47.5498 142.639 35.7023 130.642 27.2175C118.646 18.7328 104.399 13.9918 89.7047 13.5942C75.0102 13.1966 60.5277 17.1602 48.0885 24.9838C35.6494 32.8073 25.8122 44.1395 19.8211 57.5472C13.8299 70.9549 11.9539 85.836 14.4301 100.309C16.9064 114.781 23.6237 128.196 33.7327 138.855C43.8417 149.515 56.8883 156.941 71.2227 160.194C85.5571 163.448 100.535 162.382 114.264 157.133C123.379 153.648 131.718 148.403 138.804 141.699C145.89 134.995 151.585 126.962 155.563 118.06C159.541 109.157 161.725 99.5591 161.989 89.8137C162.253 80.0684 160.593 70.3664 157.103 61.2618Z" fill="#CFCFCF"/>
<path opacity="0.104" d="M157.666 61.8008C152.413 48.0955 143.209 36.2539 131.218 27.7734C119.227 19.2928 104.988 14.5542 90.3008 14.1568C75.6136 13.7594 61.1383 17.7211 48.7054 25.5408C36.2724 33.3605 26.4402 44.687 20.4521 58.0881C14.464 71.4892 12.589 86.363 15.0641 100.828C17.5392 115.294 24.2533 128.701 34.3574 139.356C44.4614 150.01 57.5017 157.432 71.829 160.684C86.1563 163.935 101.127 162.87 114.849 157.624C123.959 154.14 132.294 148.898 139.376 142.197C146.459 135.496 152.15 127.468 156.126 118.57C160.102 109.672 162.285 100.078 162.549 90.3381C162.813 80.5977 161.154 70.9007 157.666 61.8008Z" fill="#CCCCCC"/>
<path opacity="0.111" d="M158.229 62.3403C152.979 48.642 143.78 36.8063 131.795 28.33C119.81 19.8536 105.578 15.1173 90.8985 14.72C76.2188 14.3227 61.7509 18.2822 49.3242 26.0979C36.8975 33.9135 27.0702 45.2343 21.085 58.6285C15.0999 72.0227 13.2257 86.8889 15.6995 101.347C18.1732 115.805 24.8838 129.206 34.9827 139.855C45.0816 150.504 58.1151 157.922 72.4351 161.172C86.7551 164.422 101.718 163.358 115.433 158.114C124.539 154.632 132.869 149.393 139.948 142.695C147.027 135.998 152.716 127.973 156.69 119.08C160.664 110.187 162.845 100.598 163.109 90.8631C163.373 81.1276 161.715 71.4356 158.229 62.3403Z" fill="#CACACA"/>
<path opacity="0.118" d="M161.645 106.685C171.213 66.879 146.663 26.8623 106.81 17.3051C66.9577 7.74781 26.8939 32.2691 17.3254 72.0749C7.75683 111.881 32.307 151.897 72.1598 161.455C112.013 171.012 152.076 146.491 161.645 106.685Z" fill="#C8C8C8"/>
<path opacity="0.125" d="M162.33 106.706C171.629 66.8536 146.822 27.0175 106.923 17.7295C67.0234 8.44155 27.1403 33.2189 17.8414 73.0713C8.54242 112.924 33.349 152.76 73.2484 162.048C113.148 171.336 153.031 146.558 162.33 106.706Z" fill="#C5C5C5"/>
<path opacity="0.132" d="M162.962 106.847C172.011 66.9743 146.984 27.3242 107.064 18.2864C67.1444 9.2485 27.4475 34.2453 18.399 74.1182C9.35048 113.991 34.3767 153.641 74.2967 162.679C114.217 171.717 153.914 146.72 162.962 106.847Z" fill="#C3C3C3"/>
<path opacity="0.139" d="M163.676 106.77C172.434 66.8359 147.122 27.3718 107.14 18.6246C67.1586 9.87749 27.6479 35.1597 18.8904 75.0941C10.133 115.028 35.445 154.493 75.4265 163.24C115.408 171.987 154.919 146.705 163.676 106.77Z" fill="#C0C0C0"/>
<path opacity="0.146" d="M164.324 106.919C172.831 66.9645 147.3 27.686 107.298 19.1885C67.2962 10.6909 27.9715 36.1921 19.4639 76.1469C10.9563 116.102 36.4876 155.38 76.4895 163.878C116.492 172.375 155.816 146.874 164.324 106.919Z" fill="#BEBEBE"/>
<path opacity="0.152" d="M164.988 106.859C173.2 66.8588 147.392 27.7828 107.344 19.5806C67.2964 11.3784 28.1743 37.156 19.9624 77.1565C11.7506 117.157 37.5586 156.233 77.6063 164.435C117.654 172.637 156.776 146.86 164.988 106.859Z" fill="#BCBCBC"/>
<path opacity="0.159" d="M165.643 106.858C173.57 66.8218 147.502 27.9474 107.418 20.0299C67.3343 12.1124 28.414 38.1499 20.4872 78.1864C12.5603 118.223 38.6286 157.097 78.7123 165.015C118.796 172.932 157.716 146.895 165.643 106.858Z" fill="#B9B9B9"/>
<path opacity="0.166" d="M166.241 106.87C173.878 66.8133 147.558 28.1572 107.454 20.5293C67.3497 12.9013 28.648 39.1901 21.011 79.247C13.3741 119.304 39.6939 157.96 79.798 165.588C119.902 173.216 158.604 146.927 166.241 106.87Z" fill="#B7B7B7"/>
<path opacity="0.173" d="M166.964 106.906C174.329 66.8045 147.753 28.3327 107.605 20.9764C67.4565 13.6201 28.9393 40.1649 21.5743 80.266C14.2094 120.367 40.7855 158.839 80.9339 166.195C121.082 173.551 159.599 147.007 166.964 106.906Z" fill="#B5B5B5"/>
<path opacity="0.18" d="M167.606 106.828C174.664 66.69 147.809 28.4368 107.623 21.3872C67.4379 14.3375 29.1395 41.161 22.0816 81.2991C15.0236 121.437 41.8787 159.69 82.0642 166.74C122.25 173.79 160.548 146.966 167.606 106.828Z" fill="#B2B2B2"/>
<path opacity="0.187" d="M168.226 106.848C174.995 66.6897 147.889 28.6542 107.684 21.8932C67.4781 15.1323 29.3977 42.2062 22.6288 82.3645C15.8599 122.523 42.9658 160.558 83.1714 167.319C123.377 174.08 161.458 147.006 168.226 106.848Z" fill="#B0B0B0"/>
<path opacity="0.194" d="M168.915 106.91C175.411 66.7232 148.06 28.8854 107.825 22.3973C67.5903 15.9093 29.7079 43.2279 23.2122 83.4152C16.7165 123.602 44.0673 161.44 84.302 167.928C124.537 174.416 162.419 147.098 168.915 106.91Z" fill="#ADADAD"/>
<path opacity="0.201" d="M169.558 106.902C175.759 66.6894 148.148 29.0698 107.888 22.8761C67.6283 16.6825 29.9643 44.2603 23.7634 84.4729C17.5624 124.686 45.1728 162.305 85.4328 168.499C125.693 174.692 163.357 147.115 169.558 106.902Z" fill="#ABABAB"/>
<path opacity="0.208" d="M170.133 106.92C176.037 66.701 148.181 29.3173 107.915 23.4208C67.6486 17.5242 30.2207 45.3477 24.3172 85.5663C18.4137 125.785 46.27 163.169 86.5361 169.065C126.802 174.962 164.23 147.138 170.133 106.92Z" fill="#A9A9A9"/>
<path opacity="0.215" d="M170.784 106.946C176.4 66.7078 148.294 29.5409 108.008 23.9319C67.7215 18.3229 30.5108 46.3957 24.8952 86.6343C19.2796 126.873 47.3855 164.04 87.6716 169.649C127.958 175.258 165.168 147.185 170.784 106.946Z" fill="#A6A6A6"/>
<path opacity="0.222" d="M171.368 106.827C176.656 66.5679 148.267 29.6507 107.961 24.3695C67.6551 19.0884 30.6943 47.4432 25.407 87.7018C20.1196 127.96 48.5079 164.878 88.8139 170.159C129.12 175.44 166.081 147.085 171.368 106.827Z" fill="#A4A4A4"/>
<path opacity="0.229" d="M172.099 106.841C177.103 66.5461 148.456 29.829 108.114 24.8308C67.7716 19.8325 31.0112 48.4458 26.0071 88.7404C21.0029 129.035 49.65 165.752 89.9921 170.75C130.334 175.748 167.095 147.135 172.099 106.841Z" fill="#A2A2A2"/>
<path opacity="0.236" d="M172.725 106.819C177.426 66.5086 148.52 30.0245 108.163 25.3291C67.8054 20.6337 31.2783 49.505 26.5774 89.815C21.8765 130.125 50.7818 166.609 91.1394 171.304C131.497 176 168.024 147.128 172.725 106.819Z" fill="#9F9F9F"/>
<path opacity="0.243" d="M173.311 106.765C177.696 66.4462 148.529 30.2106 108.163 25.8299C67.7972 21.4493 31.5188 50.5825 27.133 90.9007C22.7472 131.219 51.9147 167.455 92.2806 171.835C132.646 176.216 168.925 147.083 173.311 106.765Z" fill="#9D9D9D"/>
<path opacity="0.25" d="M173.965 106.764C178.055 66.4295 148.634 30.4205 108.252 26.3355C67.8701 22.2506 31.8185 51.6366 27.7288 91.9711C23.639 132.306 53.0598 168.315 93.4418 172.4C133.824 176.484 169.875 147.098 173.965 106.764Z" fill="#9A9A9A"/>
<path opacity="0.256" d="M174.614 106.674C178.386 66.316 148.69 30.5449 108.285 26.7766C67.8797 23.0083 32.0664 52.6697 28.2936 93.0273C24.5208 133.385 54.2172 169.156 94.6224 172.924C135.028 176.693 170.841 147.031 174.614 106.674Z" fill="#989898"/>
<path opacity="0.263" d="M175.189 106.702C178.663 66.3524 148.73 30.8295 108.333 27.3597C67.9352 23.8898 32.3704 53.787 28.8965 94.1368C25.4225 134.487 55.355 170.01 95.7524 173.479C136.15 176.949 171.715 147.052 175.189 106.702Z" fill="#969696"/>
<path opacity="0.27" d="M175.794 106.666C178.958 66.3118 148.77 31.0362 108.368 27.8758C67.9664 24.7155 32.6492 54.8671 29.4851 95.2215C26.321 135.576 56.5082 170.851 96.9102 174.012C137.312 177.172 172.629 147.021 175.794 106.666Z" fill="#939393"/>
<path opacity="0.277" d="M176.433 106.528C179.268 66.1514 148.797 31.1243 108.373 28.2923C67.9489 25.4603 32.8805 55.8958 30.0452 96.272C27.2098 136.648 57.6813 171.675 98.1051 174.507C138.529 177.339 173.597 146.904 176.433 106.528Z" fill="#919191"/>
<path opacity="0.284" d="M176.994 106.597C179.538 66.2409 148.847 31.4657 108.443 28.9246C68.0388 26.3835 33.2225 57.0387 30.6784 97.395C28.1343 137.751 58.8257 172.526 99.2296 175.068C139.633 177.609 174.45 146.953 176.994 106.597Z" fill="#8F8F8F"/>
<path opacity="0.291" d="M177.503 106.567C179.729 66.2326 148.796 31.733 108.414 29.5102C68.0323 27.2874 33.492 58.183 31.2666 98.5175C29.0411 138.852 59.9732 173.352 100.355 175.574C140.737 177.797 175.278 146.902 177.503 106.567Z" fill="#8C8C8C"/>
<path opacity="0.298" d="M178.23 106.583C180.171 66.2285 148.993 31.9432 108.591 30.0043C68.1891 28.0654 33.8634 59.207 31.9222 99.5611C29.981 139.915 61.1593 174.2 101.561 176.139C141.963 178.078 176.288 146.937 178.23 106.583Z" fill="#8A8A8A"/>
<path opacity="0.305" d="M178.76 106.486C180.371 66.144 148.935 32.1363 108.546 30.5273C68.157 28.9183 34.1093 60.3173 32.4984 100.659C30.8875 141 62.3234 175.008 102.713 176.617C143.102 178.226 177.15 146.827 178.76 106.486Z" fill="#878787"/>
<path opacity="0.312" d="M179.258 106.458C180.551 66.1458 148.88 32.4193 108.52 31.128C68.1603 29.8368 34.3941 61.4696 33.1013 101.782C31.8084 142.094 63.4786 175.821 103.839 177.112C144.199 178.404 177.965 146.771 179.258 106.458Z" fill="#858585"/>
<path opacity="0.319" d="M179.917 106.413C180.907 66.0934 148.985 32.6067 108.617 31.6184C68.2498 30.6302 34.7235 62.5148 33.7341 102.835C32.7448 143.154 64.6669 176.641 105.034 177.629C145.402 178.618 178.928 146.733 179.917 106.413Z" fill="#838383"/>
<path opacity="0.326" d="M180.522 106.393C181.208 66.0818 149.047 32.8477 108.689 32.1624C68.3302 31.4771 35.0569 63.6002 34.3708 103.911C33.6847 144.222 65.8456 177.456 106.204 178.142C146.563 178.827 179.836 146.704 180.522 106.393Z" fill="#808080"/>
<path opacity="0.333" d="M181.051 106.317C181.414 66.0269 149.008 33.0713 108.67 32.7087C68.3325 32.3461 35.338 64.7138 34.975 105.004C34.6119 145.294 67.0178 178.25 107.356 178.612C147.693 178.975 180.688 146.607 181.051 106.317Z" fill="#7E7E7E"/>
<path opacity="0.34" d="M181.656 106.383C181.737 66.1134 149.119 33.4033 108.802 33.3228C68.485 33.2422 35.7363 65.8217 35.6557 106.091C35.575 146.36 68.193 179.07 108.51 179.151C148.827 179.232 181.575 146.652 181.656 106.383Z" fill="#7C7C7C"/>
<path opacity="0.347" d="M109.648 179.615C149.944 179.374 182.415 146.55 182.173 106.301C181.931 66.052 149.068 33.6196 108.772 33.8611C68.4759 34.1026 36.0053 66.9265 36.247 107.175C36.4888 147.424 69.3514 179.856 109.648 179.615Z" fill="#797979"/>
<path opacity="0.353" d="M110.862 180.081C151.137 179.517 183.33 146.45 182.766 106.222C182.202 65.9938 149.095 33.8391 108.82 34.4023C68.5443 34.9655 36.3517 68.0333 36.9156 108.261C37.4794 148.489 70.5862 180.644 110.862 180.081Z" fill="#777777"/>
<path opacity="0.36" d="M111.968 180.563C152.213 179.705 184.142 146.422 183.283 106.225C182.424 66.027 149.102 34.136 108.857 34.9942C68.6119 35.8524 36.6833 69.1347 37.5425 109.332C38.4017 149.53 71.7233 181.421 111.968 180.563Z" fill="#747474"/>
<path opacity="0.367" d="M113.117 181.036C153.334 179.874 184.993 146.369 183.829 106.2C182.666 66.0306 149.121 34.4091 108.904 35.5711C68.6878 36.7332 37.029 70.2387 38.1924 110.408C39.3558 150.577 72.9008 182.198 113.117 181.036Z" fill="#727272"/>
<path opacity="0.374" d="M114.265 181.506C154.451 180.041 185.839 146.315 184.373 106.176C182.906 66.0381 149.14 34.687 108.955 36.1518C68.7689 37.6166 37.3807 71.3426 38.8473 111.481C40.3138 151.619 74.0796 182.97 114.265 181.506Z" fill="#707070"/>
<path opacity="0.381" d="M115.409 181.965C155.561 180.199 186.676 146.256 184.908 106.152C183.139 66.0477 149.157 34.9688 109.005 36.7352C68.8538 38.5015 37.7383 72.4442 39.5067 112.548C41.2752 152.652 75.2579 183.731 115.409 181.965Z" fill="#6D6D6D"/>
<path opacity="0.388" d="M116.545 182.434C156.663 180.371 187.51 146.215 185.444 106.144C183.378 66.0741 149.181 35.2635 109.064 37.3271C68.9461 39.3906 38.0992 73.5468 40.1652 113.617C42.2312 153.687 76.4277 184.498 116.545 182.434Z" fill="#6B6B6B"/>
<path opacity="0.395" d="M117.681 182.893C157.761 180.533 188.337 146.166 185.974 106.133C183.611 66.1002 149.204 35.5603 109.124 37.9205C69.0436 40.2807 38.4677 74.6471 40.8307 114.68C43.1936 154.713 77.6006 185.253 117.681 182.893Z" fill="#696969"/>
<path opacity="0.402" d="M118.793 183.393C158.842 180.747 189.161 146.175 186.512 106.174C183.864 66.1723 149.251 35.8892 109.202 38.5346C69.1532 41.18 38.8344 75.7521 41.4829 115.754C44.1314 155.755 78.7443 186.038 118.793 183.393Z" fill="#666666"/>
<path opacity="0.409" d="M119.983 183.725C159.971 180.76 189.981 145.979 187.013 106.038C184.045 66.0974 149.223 36.1223 109.235 39.0868C69.2471 42.0513 39.2366 76.8328 42.2046 116.773C45.1726 156.714 79.9951 186.689 119.983 183.725Z" fill="#646464"/>
<path opacity="0.416" d="M121.066 184.244C161.022 181.007 190.785 146.03 187.544 106.121C184.302 66.2119 149.284 36.484 109.328 39.7217C69.3719 42.9593 39.6089 77.9364 42.8504 117.845C46.0918 157.754 81.1102 187.482 121.066 184.244Z" fill="#616161"/>
<path opacity="0.423" d="M122.186 184.688C162.097 181.162 191.589 145.989 188.06 106.125C184.53 66.2617 149.315 36.8039 109.404 40.3293C69.4938 43.8548 40.0012 79.0285 43.5308 118.892C47.0605 158.756 82.2757 188.213 122.186 184.688Z" fill="#5F5F5F"/>
<path opacity="0.43" d="M123.299 185.129C163.163 181.319 192.386 145.953 188.571 106.136C184.757 66.3201 149.349 37.1312 109.486 40.9412C69.6222 44.7513 40.3989 80.1174 44.2134 119.934C48.028 159.75 83.4359 188.939 123.299 185.129Z" fill="#5D5D5D"/>
<path opacity="0.437" d="M124.41 185.565C164.224 181.472 193.178 145.917 189.081 106.149C184.983 66.3821 149.386 37.4621 109.571 41.5548C69.7571 45.6475 40.803 81.2031 44.9006 120.97C48.9981 160.738 84.5957 189.658 124.41 185.565Z" fill="#5A5A5A"/>
<path opacity="0.444" d="M125.453 186.031C165.217 181.676 193.917 145.948 189.557 106.231C185.196 66.5146 149.427 37.8484 109.663 42.2037C69.8994 46.5589 41.1994 82.2864 45.5598 122.003C49.9202 161.72 85.6898 190.386 125.453 186.031Z" fill="#585858"/>
<path opacity="0.45" d="M126.614 186.43C166.325 181.781 194.744 145.858 190.09 106.194C185.435 66.5298 149.47 38.1444 109.759 42.7933C70.048 47.4423 41.6291 83.3651 46.2835 123.029C50.9379 162.693 86.9032 191.079 126.614 186.43Z" fill="#565656"/>
<path opacity="0.457" d="M127.634 186.829C167.277 181.92 195.428 145.841 190.513 106.246C185.598 66.6502 149.477 38.5317 109.834 43.4412C70.1922 48.3507 42.0405 84.4292 46.9558 124.025C51.8711 163.62 87.9921 191.739 127.634 186.829Z" fill="#535353"/>
<path opacity="0.464" d="M128.797 187.283C168.398 182.089 196.286 145.814 191.087 106.26C185.887 66.7052 149.569 38.85 109.968 44.0434C70.3668 49.2368 42.4788 85.5121 47.6783 125.067C52.8779 164.621 89.196 192.476 128.797 187.283Z" fill="#515151"/>
<path opacity="0.471" d="M129.916 187.764C169.477 182.301 197.114 145.84 191.645 106.326C186.176 66.8116 149.672 39.2073 110.111 44.6699C70.5502 50.1326 42.9133 86.5935 48.3823 126.108C53.8514 165.622 90.3554 193.226 129.916 187.764Z" fill="#4E4E4E"/>
<path opacity="0.478" d="M130.959 188.124C170.444 182.398 197.806 145.784 192.073 106.346C186.34 66.9069 149.684 39.5773 110.199 45.3034C70.7134 51.0295 43.3517 87.6428 49.0845 127.082C54.8173 166.52 91.4738 193.85 130.959 188.124Z" fill="#4C4C4C"/>
<path opacity="0.485" d="M132.03 188.542C171.455 182.555 198.556 145.778 192.562 106.4C186.568 67.0206 149.748 39.9513 110.323 45.9384C70.8974 51.9256 43.7961 88.702 49.7903 128.081C55.7845 167.46 92.6043 194.529 132.03 188.542Z" fill="#4A4A4A"/>
<path opacity="0.492" d="M133.141 189.002C172.521 182.752 199.371 145.8 193.113 106.467C186.856 67.1341 149.86 40.3154 110.48 46.5657C71.1012 52.8159 44.2508 89.7683 50.5085 129.101C56.7661 168.434 93.7621 195.253 133.141 189.002Z" fill="#474747"/>
<path opacity="0.499" d="M134.156 189.369C173.457 182.869 200.042 145.777 193.534 106.522C187.027 67.2668 149.891 40.7135 110.589 47.2136C71.2879 53.7136 44.7033 90.8056 51.2111 130.061C57.7188 169.316 94.8545 195.869 134.156 189.369Z" fill="#454545"/>
<path opacity="0.506" d="M135.209 189.78C174.446 183.029 200.776 145.784 194.016 106.593C187.257 67.4013 149.969 41.1032 110.731 47.8544C71.4935 54.6057 45.1644 91.8497 51.9236 131.041C58.6828 170.233 95.9708 196.531 135.209 189.78Z" fill="#434343"/>
<path opacity="0.513" d="M136.216 190.141C175.374 183.146 201.441 145.768 194.437 106.656C187.433 67.5439 150.011 41.5085 110.853 48.5041C71.6947 55.4997 45.6285 92.8774 52.6324 131.989C59.6363 171.101 97.0581 197.137 136.216 190.141Z" fill="#404040"/>
<path opacity="0.52" d="M137.297 190.595C176.405 183.352 202.228 145.814 194.976 106.753C187.723 67.6918 150.142 41.8987 111.034 49.1425C71.9272 56.3863 46.1037 93.9238 53.3561 132.985C60.6084 172.046 98.1902 197.839 137.297 190.595Z" fill="#3E3E3E"/>
<path opacity="0.527" d="M138.333 191C177.374 183.515 202.947 145.835 195.453 106.841C187.959 67.8467 150.236 42.3034 111.195 49.7885C72.1549 57.2737 46.5814 94.9528 54.0754 133.947C61.5694 172.942 99.2929 198.485 138.333 191Z" fill="#3B3B3B"/>
<path opacity="0.534" d="M139.364 191.402C178.336 183.679 203.661 145.861 195.929 106.935C188.197 68.0081 150.335 42.7127 111.362 50.4359C72.3898 58.1591 47.0645 95.9763 54.7969 134.903C62.5292 173.83 100.391 199.125 139.364 191.402Z" fill="#393939"/>
<path opacity="0.541" d="M140.465 191.824C179.382 183.851 204.46 145.877 196.478 107.005C188.496 68.1341 150.476 43.0858 111.559 51.0583C72.6421 59.0309 47.5642 97.0054 55.5462 135.877C63.5281 174.748 101.547 199.796 140.465 191.824Z" fill="#373737"/>
<path opacity="0.548" d="M141.4 192.205C180.235 184.018 205.072 145.936 196.874 107.147C188.677 68.3577 150.55 43.5503 111.715 51.7379C72.8806 59.9254 48.044 98.0075 56.2412 136.796C64.4384 175.586 102.565 200.393 141.4 192.205Z" fill="#343434"/>
<path opacity="0.554" d="M142.412 192.603C181.176 184.188 205.771 145.978 197.346 107.259C188.921 68.5401 150.666 43.9741 111.902 52.3893C73.1371 60.8045 48.5421 99.0143 56.9672 137.733C65.3923 176.452 103.647 201.018 142.412 192.603Z" fill="#323232"/>
<path opacity="0.561" d="M143.4 193.023C182.098 184.389 206.461 146.058 197.817 107.406C189.174 68.7544 150.797 44.4198 112.1 53.053C73.4026 61.6862 49.0393 100.018 57.6827 138.67C66.3261 177.321 104.703 201.656 143.4 193.023Z" fill="#303030"/>
<path opacity="0.568" d="M144.464 193.437C183.1 184.571 207.226 146.099 198.349 107.507C189.473 68.9161 150.956 44.8191 112.319 53.6852C73.6819 62.5513 49.5565 101.023 58.433 139.614C67.3096 178.206 105.827 202.303 144.464 193.437Z" fill="#2D2D2D"/>
<path opacity="0.575" d="M145.319 193.775C183.856 184.716 207.744 146.168 198.674 107.676C189.604 69.1843 151.011 45.3245 112.474 54.3837C73.9363 63.443 50.0483 101.991 59.1182 140.483C68.1881 178.974 106.781 202.834 145.319 193.775Z" fill="#2B2B2B"/>
<path opacity="0.582" d="M146.385 194.188C184.863 184.899 208.517 146.213 199.217 107.781C189.918 69.3481 151.187 45.7223 112.709 55.0109C74.2308 64.2995 50.577 102.985 59.8766 141.418C69.1761 179.85 107.907 203.476 146.385 194.188Z" fill="#282828"/>
<path opacity="0.589" d="M147.365 194.58C185.77 185.082 209.194 146.285 199.684 107.925C190.174 69.5653 151.331 46.1689 112.927 55.6676C74.5216 65.1664 51.0976 103.963 60.6075 142.323C70.1175 180.683 108.96 204.079 147.365 194.58Z" fill="#262626"/>
<path opacity="0.596" d="M148.337 194.974C186.668 185.269 209.866 146.364 200.149 108.078C190.433 69.7911 151.482 46.6212 113.15 56.3262C74.8185 66.0313 51.6213 104.936 61.3378 143.223C71.0543 181.509 110.005 204.679 148.337 194.974Z" fill="#242424"/>
<path opacity="0.603" d="M149.306 195.366C187.564 185.457 210.537 146.447 200.616 108.234C190.696 70.0204 151.64 47.0749 113.381 56.9835C75.1228 66.8921 52.1502 105.903 62.0705 144.116C71.9908 182.329 111.047 205.275 149.306 195.366Z" fill="#212121"/>
<path opacity="0.61" d="M150.262 195.758C188.446 185.651 211.197 146.539 201.078 108.4C190.959 70.261 151.801 47.5369 113.617 57.6443C75.4326 67.7517 52.6816 106.863 62.801 145.002C72.9203 183.141 112.078 205.866 150.262 195.758Z" fill="#1F1F1F"/>
<path opacity="0.617" d="M151.216 196.15C189.326 185.846 211.857 146.636 201.542 108.571C191.226 70.5058 151.969 48.0006 113.859 58.3042C75.7494 68.6077 53.2177 107.818 63.5334 145.883C73.849 183.948 113.106 206.453 151.216 196.15Z" fill="#1D1D1D"/>
<path opacity="0.624" d="M152.127 196.579C190.167 186.095 212.495 146.794 201.999 108.799C191.502 70.8043 152.156 48.5023 114.116 58.9864C76.0759 69.4705 53.7476 108.771 64.244 146.766C74.7405 184.761 114.087 207.063 152.127 196.579Z" fill="#1A1A1A"/>
<path opacity="0.631" d="M153.104 196.932C191.065 186.247 213.166 146.847 202.467 108.931C191.769 71.0148 152.323 48.9401 114.362 59.6257C76.4013 70.3113 54.3005 109.711 64.9988 147.627C75.697 185.543 115.143 207.618 153.104 196.932Z" fill="#181818"/>
<path opacity="0.638" d="M154.039 197.323C191.925 186.452 213.814 146.962 202.93 109.12C192.045 71.2786 152.509 49.4151 114.623 60.2867C76.7366 71.1584 54.8474 110.648 65.7318 148.49C76.6163 186.331 116.153 208.195 154.039 197.323Z" fill="#151515"/>
<path opacity="0.645" d="M154.969 197.713C192.78 186.659 214.46 147.081 203.393 109.315C192.325 71.5477 152.701 49.8931 114.889 60.9476C77.0781 72.0022 55.3979 111.58 66.4655 149.346C77.5331 187.113 117.157 208.768 154.969 197.713Z" fill="#131313"/>
<path opacity="0.651" d="M155.893 198.103C193.629 186.869 215.103 147.206 203.855 109.514C192.607 71.8223 152.898 50.3742 115.162 61.6085C77.4252 72.8428 55.9517 112.505 67.1993 150.197C78.4468 187.889 118.156 209.337 155.893 198.103Z" fill="#111111"/>
<path opacity="0.658" d="M156.811 198.493C194.472 187.082 215.742 147.336 204.317 109.719C192.893 72.1024 153.101 50.8582 115.439 62.2692C77.7779 73.6802 56.5087 113.425 67.9331 151.042C79.3576 188.659 119.15 209.904 156.811 198.493Z" fill="#0E0E0E"/>
<path opacity="0.665" d="M157.724 198.882C195.31 187.298 216.378 147.473 204.78 109.931C193.181 72.3885 153.309 51.3458 115.723 62.9304C78.1364 74.515 57.0689 114.34 68.6672 151.882C80.2655 189.424 120.138 210.467 157.724 198.882Z" fill="#0C0C0C"/>
<path opacity="0.672" d="M158.629 199.273C196.141 187.519 217.01 147.617 205.242 110.149C193.473 72.6819 153.524 51.8374 116.012 63.592C78.5008 75.3465 57.6318 115.249 69.4002 152.716C81.1685 190.184 121.118 211.028 158.629 199.273Z" fill="#0A0A0A"/>
<path opacity="0.679" d="M159.531 199.663C196.968 187.741 217.64 147.763 205.704 110.371C193.768 72.9782 153.744 52.3302 116.307 64.2522C78.8703 76.1742 58.1979 116.152 70.134 153.544C82.07 190.937 122.095 211.585 159.531 199.663Z" fill="#070707"/>
<path opacity="0.686" d="M160.426 200.055C197.788 187.969 218.267 147.919 206.167 110.601C194.067 73.283 153.97 52.8282 116.608 64.914C79.2457 76.9998 58.7668 117.049 70.8668 154.367C82.9668 191.686 123.064 212.14 160.426 200.055Z" fill="#050505"/>
<path opacity="0.693" d="M161.317 200.444C198.604 188.197 218.892 148.077 206.63 110.833C194.368 73.5901 154.201 53.3266 116.914 65.5738C79.6262 77.821 59.3388 117.941 71.6005 155.184C83.8621 192.428 124.029 212.691 161.317 200.444Z" fill="#020202"/>
<path opacity="0.7" d="M162.202 200.835C199.415 188.429 219.513 148.241 207.093 111.072C194.673 73.9031 154.437 53.8284 117.224 66.2339C80.0114 78.6395 59.913 118.828 72.3332 155.997C84.7534 193.166 124.989 213.24 162.202 200.835Z" fill="black"/>
</g>
<path d="M198.089 195.162C232.282 161.01 232.282 105.637 198.089 71.4849C163.896 37.3325 108.459 37.3325 74.2661 71.4849C40.0733 105.637 40.0733 161.01 74.2661 195.162C108.459 229.315 163.896 229.315 198.089 195.162Z" fill="url(#paint0_linear_116_2)"/>
<path d="M136.178 217.032C182.463 217.032 219.986 179.554 219.986 133.323C219.986 87.0915 182.463 49.6135 136.178 49.6135C89.8916 49.6135 52.3694 87.0915 52.3694 133.323C52.3694 179.554 89.8916 217.032 136.178 217.032Z" fill="#F1F1F1"/>
<path d="M155.839 110.256C145.078 109.907 134.648 106.458 125.806 100.323C125.564 100.155 125.281 100.057 124.988 100.039C124.694 100.021 124.401 100.084 124.141 100.221C123.881 100.358 123.664 100.563 123.513 100.816C123.362 101.068 123.283 101.356 123.285 101.65C123.285 101.69 123.269 105.665 120.249 107.48C119.043 108.173 117.641 108.449 116.262 108.264C116.036 108.236 115.807 108.256 115.589 108.323C115.371 108.39 115.17 108.502 115 108.653C114.829 108.803 114.692 108.988 114.598 109.195C114.504 109.402 114.455 109.627 114.455 109.855V125.11C114.455 130.796 116.717 136.25 120.742 140.271C124.768 144.291 130.228 146.55 135.921 146.55C141.614 146.55 147.074 144.291 151.1 140.271C155.125 136.25 157.387 130.796 157.387 125.11V111.858C157.386 111.443 157.224 111.043 156.935 110.744C156.645 110.446 156.251 110.271 155.835 110.256H155.839Z" fill="#EDB072"/>
<path d="M139.716 179.191H132.133C131.833 179.201 131.533 179.146 131.255 179.03C130.977 178.915 130.727 178.741 130.522 178.522C130.316 178.302 130.16 178.041 130.064 177.756C129.968 177.471 129.934 177.169 129.964 176.869L132.481 157.849C132.531 157.543 132.646 157.251 132.819 156.993C132.991 156.735 133.217 156.517 133.482 156.353C133.746 156.19 134.042 156.085 134.35 156.046C134.659 156.007 134.972 156.035 135.269 156.127C135.696 156.243 136.148 156.243 136.576 156.127C136.873 156.035 137.186 156.007 137.495 156.047C137.803 156.086 138.1 156.19 138.364 156.353C138.629 156.517 138.855 156.735 139.028 156.993C139.202 157.251 139.317 157.543 139.368 157.849L141.884 176.869C141.915 177.168 141.881 177.471 141.785 177.756C141.689 178.041 141.533 178.302 141.328 178.522C141.123 178.742 140.873 178.915 140.595 179.031C140.317 179.146 140.017 179.201 139.716 179.191Z" fill="#174972"/>
<path d="M144.532 162.293L140.799 158.284C140.603 158.078 140.495 157.804 140.497 157.52C140.5 157.236 140.614 156.964 140.814 156.762L149.075 148.202C149.135 148.137 149.215 148.094 149.302 148.078C149.389 148.062 149.479 148.074 149.559 148.112C149.638 148.15 149.704 148.213 149.746 148.29C149.788 148.368 149.804 148.457 149.792 148.545L146.664 161.787C146.601 162.001 146.484 162.194 146.322 162.347C146.161 162.501 145.962 162.609 145.745 162.66C145.528 162.711 145.302 162.705 145.089 162.64C144.876 162.576 144.683 162.456 144.532 162.293Z" fill="#174972"/>
<path d="M127.389 162.293C127.237 162.456 127.045 162.576 126.831 162.641C126.618 162.705 126.392 162.712 126.175 162.66C125.958 162.609 125.759 162.501 125.598 162.348C125.436 162.194 125.318 162.001 125.256 161.787L122.126 148.545C122.114 148.457 122.131 148.368 122.173 148.291C122.215 148.213 122.28 148.15 122.36 148.112C122.44 148.074 122.53 148.062 122.617 148.078C122.704 148.094 122.783 148.137 122.844 148.202L131.105 156.764C131.305 156.966 131.418 157.237 131.421 157.522C131.424 157.806 131.316 158.08 131.12 158.286L127.387 162.295L127.389 162.293Z" fill="#174972"/>
<path d="M128.264 176.075C128.215 176.463 128.027 176.82 127.734 177.078C127.44 177.337 127.063 177.479 126.672 177.479H105.031C104.605 177.479 104.197 177.311 103.896 177.01C103.596 176.71 103.427 176.302 103.427 175.877V166.407C103.426 164.234 103.854 162.082 104.686 160.074C105.518 158.066 106.738 156.242 108.276 154.705C109.814 153.169 111.64 151.95 113.65 151.119C115.66 150.288 117.815 149.86 119.99 149.861C120.375 149.861 120.76 149.828 121.139 149.763C121.208 149.75 121.279 149.764 121.338 149.803C121.396 149.841 121.438 149.901 121.453 149.969L124.327 162.995C124.39 163.286 124.533 163.553 124.74 163.766C124.947 163.98 125.209 164.132 125.498 164.205C125.786 164.279 126.089 164.27 126.373 164.181C126.657 164.093 126.91 163.927 127.105 163.702L128.537 162.054C128.65 161.924 128.802 161.834 128.97 161.797C129.138 161.76 129.313 161.777 129.471 161.847C129.628 161.918 129.758 162.036 129.842 162.186C129.927 162.336 129.961 162.509 129.939 162.68L128.264 176.075Z" fill="#143E70"/>
<path d="M168.424 166.407V175.877C168.424 176.302 168.255 176.709 167.954 177.01C167.653 177.31 167.245 177.479 166.82 177.479H145.179C144.788 177.479 144.41 177.336 144.117 177.078C143.824 176.819 143.635 176.462 143.587 176.075L141.91 162.68C141.888 162.509 141.922 162.336 142.007 162.186C142.091 162.036 142.222 161.917 142.379 161.847C142.536 161.776 142.712 161.759 142.88 161.796C143.048 161.834 143.2 161.924 143.313 162.054L144.745 163.702C144.94 163.927 145.193 164.093 145.477 164.181C145.761 164.27 146.064 164.279 146.352 164.205C146.641 164.132 146.903 163.98 147.11 163.766C147.317 163.553 147.46 163.286 147.523 162.995L150.397 149.969C150.413 149.901 150.454 149.842 150.513 149.804C150.571 149.765 150.642 149.751 150.711 149.763C151.09 149.828 151.475 149.861 151.86 149.861C154.035 149.86 156.19 150.287 158.2 151.119C160.21 151.95 162.037 153.168 163.575 154.705C165.114 156.241 166.334 158.066 167.166 160.073C167.998 162.081 168.426 164.233 168.425 166.406L168.424 166.407Z" fill="#143E70"/>
<path d="M145.594 147.448C146.96 147.28 147.916 148.164 146.979 148.732L139.381 155.525C138.943 155.134 138.378 154.915 137.791 154.908C136.939 154.93 136.64 155.522 135.821 155.411C135.259 155.334 135.269 155.038 134.553 154.947C134.102 154.875 133.641 154.942 133.23 155.14C133.004 155.256 132.802 155.413 132.635 155.604L124.845 148.73C123.908 148.162 124.864 147.277 126.231 147.446C132.661 148.227 139.163 148.228 145.594 147.448Z" fill="#EDB072"/>
<path d="M158.104 105.392C158.104 122.449 158.104 121.385 158.098 121.564C158.085 121.758 157.997 121.941 157.852 122.072C157.706 122.203 157.516 122.272 157.321 122.266C157.125 122.259 156.94 122.177 156.804 122.037C156.668 121.897 156.591 121.709 156.591 121.514V114.868C156.591 113.823 156.184 112.82 155.458 112.069C154.731 111.318 153.741 110.878 152.696 110.842C144.199 110.567 135.964 107.843 128.981 103C128.377 102.582 127.669 102.337 126.935 102.292C126.201 102.246 125.469 102.402 124.817 102.742C124.166 103.082 123.619 103.593 123.237 104.221C122.855 104.848 122.652 105.568 122.65 106.302C122.645 106.406 122.551 108.214 121.411 108.898C120.918 109.171 120.349 109.275 119.791 109.194C119.224 109.123 118.648 109.174 118.102 109.342C117.555 109.51 117.051 109.793 116.622 110.171C116.194 110.549 115.85 111.013 115.615 111.534C115.379 112.054 115.257 112.619 115.257 113.19V121.514C115.257 121.709 115.181 121.897 115.044 122.037C114.908 122.177 114.723 122.259 114.528 122.266C114.332 122.272 114.142 122.203 113.997 122.072C113.852 121.941 113.763 121.758 113.75 121.564C113.742 121.385 113.744 122.479 113.744 104.966C113.746 103.567 114.248 102.214 115.158 101.15C116.069 100.087 117.329 99.3822 118.713 99.163C119.891 96.6275 121.772 94.4826 124.134 92.9827C126.495 91.4828 129.238 90.6909 132.036 90.701H143.396C147.297 90.701 151.039 92.2488 153.797 95.004C156.556 97.7592 158.106 101.496 158.106 105.392H158.104Z" fill="#143E70"/>
</g>
<defs>
<linearGradient id="paint0_linear_116_2" x1="-4127.3" y1="-4504.07" x2="-3946.64" y2="-4485.35" gradientUnits="userSpaceOnUse">
<stop stop-color="white"/>
<stop offset="0.997" stop-color="#D5D4D4"/>
</linearGradient>
<clipPath id="clip0_116_2">
<rect width="260" height="257" fill="white"/>
</clipPath>
</defs>
</svg>
