<svg width="270" height="266" viewBox="0 0 270 266" fill="none" xmlns="http://www.w3.org/2000/svg">
<g clip-path="url(#clip0_116_119)">
<path d="M145.857 45.1228V69.4806C136.283 69.4806 126.802 71.3613 117.956 75.0155C109.11 78.6696 101.073 84.0256 94.3025 90.7775C87.5322 97.5295 82.1617 105.545 78.4977 114.367C74.8337 123.189 72.9478 132.644 72.9478 142.193C72.9478 151.742 74.8337 161.197 78.4977 170.019C82.1617 178.841 87.5322 186.856 94.3025 193.608C101.073 200.36 109.11 205.716 117.956 209.37C126.802 213.024 136.283 214.905 145.857 214.905V239.263C92.1871 239.263 48.5231 195.718 48.5231 142.193C48.5231 88.6676 92.1871 45.1228 145.857 45.1228Z" fill="#E3E3E3"/>
<path d="M145.857 45.1228V69.4806C155.432 69.4806 164.913 71.3613 173.758 75.0155C182.604 78.6696 190.642 84.0256 197.412 90.7775C204.182 97.5295 209.553 105.545 213.217 114.367C216.881 123.189 218.766 132.644 218.766 142.193C218.766 151.742 216.881 161.197 213.217 170.019C209.553 178.841 204.182 186.856 197.412 193.608C190.642 200.36 182.604 205.716 173.758 209.37C164.913 213.024 155.432 214.905 145.857 214.905V239.263C199.527 239.263 243.191 195.718 243.191 142.193C243.191 88.6676 199.527 45.1228 145.857 45.1228Z" fill="#54C1AA"/>
<g opacity="0.14">
<path opacity="0.01" d="M159.504 63.0389C154.2 49.2215 144.907 37.283 132.799 28.733C120.692 20.183 106.314 15.4057 91.4842 15.005C76.6542 14.6043 62.0382 18.5983 49.4843 26.482C36.9304 34.3656 27.0026 45.7848 20.9562 59.2955C14.9098 72.8062 13.0164 87.8017 15.5155 102.386C18.0145 116.969 24.7938 130.487 34.996 141.228C45.1983 151.97 58.3652 159.453 72.8318 162.731C87.2984 166.009 102.415 164.936 116.27 159.646C125.469 156.134 133.885 150.849 141.036 144.094C148.188 137.338 153.935 129.244 157.949 120.273C161.964 111.302 164.168 101.63 164.435 91.81C164.701 81.9898 163.026 72.2133 159.504 63.0389Z" fill="#EEEEEE"/>
<path opacity="0.014" d="M160.068 63.579C154.767 49.7685 145.478 37.836 133.377 29.2903C121.275 20.7446 106.905 15.9697 92.0824 15.5692C77.2599 15.1687 62.6512 19.1607 50.1037 27.0404C37.5561 34.9201 27.6333 46.3336 21.59 59.8376C15.5466 73.3415 13.6543 88.3294 16.1522 102.906C18.6501 117.482 25.426 130.993 35.6232 141.729C45.8203 152.465 58.9807 159.944 73.44 163.221C87.8994 166.497 103.008 165.424 116.856 160.137C135.425 153.048 150.41 138.892 158.514 120.783C166.618 102.675 167.177 82.0982 160.068 63.579Z" fill="#EBEBEB"/>
<path opacity="0.021" d="M160.632 64.1185C155.334 50.3149 146.05 38.3882 133.954 29.8467C121.859 21.3053 107.495 16.5327 92.6802 16.1325C77.865 15.7324 63.2636 19.7225 50.7223 27.5985C38.1811 35.4744 28.2633 46.8824 22.2232 60.3798C16.1832 73.8772 14.292 88.8577 16.789 103.427C19.2861 117.996 26.059 131.5 36.2515 142.23C46.4439 152.96 59.598 160.435 74.0503 163.71C88.5026 166.985 103.604 165.911 117.445 160.626C136.004 153.54 150.98 139.391 159.08 121.292C167.179 103.194 167.737 82.6278 160.632 64.1185Z" fill="#E9E9E9"/>
<path opacity="0.028" d="M161.196 64.658C155.9 50.8616 146.621 38.9411 134.532 30.4042C122.443 21.8672 108.087 17.097 93.279 16.697C78.4715 16.2969 63.8776 20.2849 51.3428 28.1567C38.808 36.0284 28.8952 47.4304 22.858 60.9206C16.8208 74.4109 14.9303 89.3837 17.4257 103.945C19.9211 118.507 26.6901 132.004 36.877 142.729C47.0638 153.454 60.2108 160.926 74.6555 164.199C89.1002 167.473 104.194 166.401 118.028 161.119C127.213 157.612 135.616 152.335 142.756 145.59C149.897 138.844 155.635 130.762 159.644 121.805C163.652 112.848 165.853 103.191 166.119 93.3854C166.385 83.5801 164.712 73.8186 161.196 64.658Z" fill="#E6E6E6"/>
<path opacity="0.035" d="M161.761 65.1982C156.467 51.4088 147.192 39.4946 135.109 30.9621C123.026 22.4297 108.678 17.6622 93.8776 17.2625C79.0777 16.8628 64.4913 20.8489 51.9629 28.7167C39.4345 36.5845 29.5269 47.9807 23.4928 61.4641C17.4588 74.9475 15.5694 89.9126 18.0635 104.467C20.5576 119.021 27.3232 132.511 37.5048 143.231C47.6864 153.95 60.8267 161.418 75.264 164.69C89.7014 167.962 104.787 166.89 118.614 161.612C127.795 158.106 136.194 152.832 143.331 146.09C150.468 139.348 156.203 131.27 160.21 122.317C164.216 113.364 166.415 103.712 166.681 93.9113C166.948 84.1109 165.275 74.3541 161.761 65.1982Z" fill="#E4E4E4"/>
<path opacity="0.042" d="M162.325 65.7377C157.034 51.9551 147.764 40.0467 135.687 31.5183C123.61 22.9899 109.269 18.2246 94.4764 17.8249C79.6839 17.4252 65.1047 21.4092 52.5825 29.2729C40.0603 37.1367 30.1576 48.5271 24.1264 62.0037C18.0953 75.4803 16.2068 90.4379 18.6996 104.985C21.1924 119.532 27.9546 133.015 38.1312 143.729C48.3077 154.444 61.4414 161.908 75.8715 165.178C90.3016 168.448 105.38 167.377 119.2 162.101C137.732 155.025 152.686 140.898 160.774 122.826C168.861 104.755 169.419 84.2195 162.325 65.7377Z" fill="#E2E2E2"/>
<path opacity="0.049" d="M162.889 66.2772C157.601 52.5017 148.335 40.5993 136.265 32.0752C124.194 23.5512 109.86 18.7882 95.0747 18.3888C80.2897 17.9893 65.7179 21.9713 53.2021 29.831C40.6863 37.6908 30.7885 49.0754 24.7605 62.5452C18.7324 76.015 16.8448 90.965 19.3364 105.505C21.8279 120.044 28.5868 133.521 38.7581 144.229C48.9295 154.938 62.0565 162.399 76.4793 165.667C90.9021 168.935 105.973 167.865 119.786 162.592C128.957 159.09 137.347 153.821 144.477 147.086C151.607 140.351 157.336 132.281 161.339 123.337C165.341 114.394 167.538 104.751 167.804 94.9609C168.07 85.1705 166.4 75.4238 162.889 66.2772Z" fill="#DFDFDF"/>
<path opacity="0.055" d="M163.453 66.8173C158.167 53.0487 148.907 41.1523 136.842 32.6325C124.778 24.1127 110.451 19.3521 95.6732 18.9528C80.8956 18.5535 66.3312 22.5334 53.8217 30.3891C41.3122 38.2449 31.4194 49.6237 25.3944 63.0867C19.3693 76.5497 17.4827 91.4921 19.9729 106.024C22.4632 120.557 29.2186 134.026 39.3848 144.73C49.551 155.433 62.6715 162.89 77.087 166.156C91.5025 169.423 106.566 168.353 120.371 163.082C138.884 156.014 153.824 141.901 161.903 123.848C169.982 105.795 170.54 85.2803 163.453 66.8173Z" fill="#DDDDDD"/>
<path opacity="0.062" d="M165.242 117.185C178.085 78.0817 156.711 35.9995 117.502 23.1914C78.2928 10.3834 36.0966 31.6997 23.2538 70.8027C10.4111 109.906 31.7851 151.988 70.9941 164.796C110.203 177.604 152.399 156.288 165.242 117.185Z" fill="#DBDBDB"/>
<path opacity="0.069" d="M165.975 117.18C178.523 78.0045 156.852 36.101 117.57 23.5863C78.2874 11.0716 36.2703 32.6848 23.7217 71.8608C11.1731 111.037 32.8449 152.94 72.127 165.455C111.409 177.97 153.426 156.356 165.975 117.18Z" fill="#D8D8D8"/>
<path opacity="0.076" d="M166.705 117.164C178.954 77.9156 156.98 36.1958 117.625 23.9803C78.2701 11.7648 36.4373 33.6793 24.1887 72.9277C11.9401 112.176 33.914 153.896 73.2687 166.111C112.624 178.327 154.456 156.412 166.705 117.164Z" fill="#D6D6D6"/>
<path opacity="0.083" d="M167.434 117.143C179.379 77.8232 157.101 36.2914 117.675 24.3789C78.2488 12.4664 36.6044 34.6843 24.6596 74.0039C12.7149 113.324 34.9929 154.855 74.4191 166.768C113.845 178.68 155.49 156.462 167.434 117.143Z" fill="#D3D3D3"/>
<path opacity="0.09" d="M168.157 117.19C179.809 77.8097 157.245 36.4652 117.758 24.8442C78.2716 13.2231 36.815 35.7263 25.1625 75.1064C13.51 114.486 36.0741 155.831 75.5609 167.452C115.048 179.073 156.504 156.57 168.157 117.19Z" fill="#D1D1D1"/>
<path opacity="0.097" d="M168.886 117.067C180.207 77.6076 157.31 36.4669 117.743 25.1767C78.1772 13.8865 36.925 36.7222 25.6042 76.1816C14.2834 115.641 37.1809 156.782 76.7472 168.072C116.314 179.362 157.566 156.526 168.886 117.067Z" fill="#CFCFCF"/>
<path opacity="0.104" d="M169.61 117.018C180.612 77.4906 157.401 36.5526 117.766 25.5803C78.1318 14.608 37.0829 37.7564 26.0809 77.2837C15.0788 116.811 38.29 157.749 77.9244 168.721C117.559 179.694 158.608 156.545 169.61 117.018Z" fill="#CCCCCC"/>
<path opacity="0.111" d="M170.397 116.975C181.087 77.368 157.557 36.6184 117.843 25.9581C78.1284 15.2978 37.2683 38.7638 26.5791 78.3708C15.89 117.978 39.4195 158.727 79.1339 169.388C118.848 180.048 159.708 156.582 170.397 116.975Z" fill="#CACACA"/>
<path opacity="0.118" d="M171.048 116.894C181.398 77.2353 157.551 36.7176 117.785 26.3954C78.0187 16.0731 37.3913 39.8552 27.041 79.514C16.6908 119.173 40.5373 159.691 80.3037 170.013C120.07 180.335 160.697 156.553 171.048 116.894Z" fill="#C8C8C8"/>
<path opacity="0.125" d="M171.762 116.818C181.779 77.0959 157.611 36.796 117.781 26.8059C77.9514 16.8158 37.5423 40.9186 27.5252 80.6409C17.508 120.363 41.676 160.663 81.506 170.653C121.336 180.643 161.745 156.54 171.762 116.818Z" fill="#C5C5C5"/>
<path opacity="0.132" d="M172.518 116.749C182.205 76.957 157.713 36.8669 117.814 27.2055C77.9135 17.544 37.7148 41.9697 28.0272 81.7619C18.3395 121.554 42.8315 161.644 82.7314 171.306C122.631 180.967 162.83 156.541 172.518 116.749Z" fill="#C3C3C3"/>
<path opacity="0.139" d="M173.248 116.686C182.602 76.8322 157.79 36.9616 117.829 27.6324C77.8671 18.3032 37.8885 43.0482 28.534 82.9019C19.1796 122.756 43.9916 162.626 83.9533 171.955C123.915 181.285 163.894 156.54 173.248 116.686Z" fill="#C0C0C0"/>
<path opacity="0.146" d="M173.915 116.48C182.896 76.5648 157.731 36.9466 117.708 27.9902C77.6843 19.0339 37.9588 44.1309 28.9782 84.0461C19.9975 123.961 45.1626 163.579 85.1859 172.536C125.209 181.492 164.935 156.395 173.915 116.48Z" fill="#BEBEBE"/>
<path opacity="0.152" d="M174.669 116.426C183.317 76.4499 157.832 37.0507 117.748 28.4259C77.6628 19.8012 38.1569 45.2168 29.5087 85.1933C20.8605 125.17 46.345 164.569 86.4298 173.194C126.515 181.819 166.021 156.403 174.669 116.426Z" fill="#BCBCBC"/>
<path opacity="0.159" d="M175.282 116.326C183.57 76.3154 157.766 37.1805 117.647 28.9152C77.5287 20.6499 38.2877 46.3841 30 86.3942C21.7123 126.404 47.5163 165.539 87.6348 173.805C127.753 182.07 166.994 156.336 175.282 116.326Z" fill="#B9B9B9"/>
<path opacity="0.166" d="M175.988 116.259C183.931 76.201 157.809 37.3055 117.642 29.3837C77.4754 21.4619 38.4746 47.5136 30.5313 87.5718C22.588 127.63 48.7103 166.525 88.877 174.447C129.044 182.369 168.045 156.317 175.988 116.259Z" fill="#B7B7B7"/>
<path opacity="0.173" d="M176.661 116.08C184.23 75.971 157.762 37.3371 117.544 29.7888C77.3267 22.2406 38.5882 48.6364 31.0195 88.7454C23.4508 128.855 49.9181 167.488 90.1358 175.037C130.354 182.585 169.092 156.189 176.661 116.08Z" fill="#B5B5B5"/>
<path opacity="0.18" d="M177.279 115.956C184.478 75.8165 157.686 37.4568 117.438 30.2774C77.1897 23.098 38.7261 49.8175 31.5272 89.9571C24.3283 130.097 51.1202 168.456 91.3686 175.636C131.617 182.815 170.081 156.096 177.279 115.956Z" fill="#B2B2B2"/>
<path opacity="0.187" d="M178.02 115.809C184.856 75.6121 157.723 37.4989 117.417 30.6812C77.1105 23.8636 38.8941 50.9232 32.058 91.1206C25.2219 131.318 52.3548 169.431 92.661 176.249C132.967 183.066 171.184 156.007 178.02 115.809Z" fill="#B0B0B0"/>
<path opacity="0.194" d="M178.615 115.662C185.071 75.4411 157.611 37.6162 117.281 31.1776C76.9517 24.739 39.0244 52.1249 32.5684 92.3457C26.1123 132.566 53.5724 170.391 93.9021 176.83C134.232 183.268 172.159 155.883 178.615 115.662Z" fill="#ADADAD"/>
<path opacity="0.201" d="M179.358 115.519C185.451 75.2452 157.652 37.6714 117.269 31.5956C76.8864 25.5199 39.2107 53.243 33.1185 93.5169C27.0263 133.791 54.8245 171.365 95.2076 177.44C135.591 183.516 173.266 155.793 179.358 115.519Z" fill="#ABABAB"/>
<path opacity="0.208" d="M180.019 115.366C185.735 75.0582 157.605 37.761 117.188 32.0603C76.7713 26.3596 39.3731 54.414 33.6569 94.7216C27.9407 135.029 56.0711 172.326 96.488 178.027C136.905 183.728 174.303 155.673 180.019 115.366Z" fill="#A9A9A9"/>
<path opacity="0.215" d="M180.673 115.209C186.011 74.8705 157.55 37.8544 117.102 32.5309C76.6547 27.2074 39.5383 55.5923 34.2004 95.9305C28.8625 136.269 57.3243 173.285 97.7718 178.608C138.219 183.932 175.336 155.547 180.673 115.209Z" fill="#A6A6A6"/>
<path opacity="0.222" d="M181.323 115.05C186.281 74.6845 157.489 37.9534 117.014 33.0087C76.5398 28.0639 39.7092 56.7778 34.751 97.1431C29.7928 137.508 58.5846 174.239 99.0592 179.184C139.534 184.129 176.364 155.415 181.323 115.05Z" fill="#A4A4A4"/>
<path opacity="0.229" d="M181.965 114.886C186.541 74.4966 157.421 38.055 116.922 33.4911C76.4235 28.9271 39.8832 57.9692 35.3069 98.3583C30.7306 138.747 59.8513 175.189 100.35 179.753C140.848 184.317 177.389 155.275 181.965 114.886Z" fill="#A2A2A2"/>
<path opacity="0.236" d="M182.602 114.722C186.796 74.3125 157.348 38.1638 116.829 33.9814C76.3104 29.7991 40.0637 59.167 35.8701 99.5764C31.6764 139.986 61.1238 176.135 101.643 180.317C142.162 184.499 178.408 155.131 182.602 114.722Z" fill="#9F9F9F"/>
<path opacity="0.243" d="M183.232 114.554C187.042 74.128 157.27 38.2761 116.734 34.4768C76.1981 30.6774 40.249 60.3694 36.4394 100.796C32.6297 141.222 62.4021 177.074 102.938 180.873C143.474 184.672 179.423 154.981 183.232 114.554Z" fill="#9D9D9D"/>
<path opacity="0.25" d="M183.777 114.395C187.196 73.9739 157.11 38.4425 116.579 35.0335C76.0487 31.6245 40.421 61.6288 37.0028 102.05C33.5845 142.471 63.6701 178.003 104.201 181.412C144.731 184.821 180.359 154.816 183.777 114.395Z" fill="#9A9A9A"/>
<path opacity="0.256" d="M184.473 114.217C187.512 73.7673 157.097 38.5193 116.538 35.4879C75.9794 32.4564 40.6359 62.7895 37.5962 103.239C34.5566 143.688 64.9718 178.936 105.531 181.967C146.089 184.999 181.433 154.666 184.473 114.217Z" fill="#989898"/>
<path opacity="0.263" d="M185.082 114.048C187.737 73.5927 157.005 38.6514 116.44 36.0041C75.8756 33.3568 40.8397 64.0059 38.1852 104.461C35.5308 144.916 66.2629 179.857 106.827 182.504C147.392 185.152 182.428 154.502 185.082 114.048Z" fill="#969696"/>
<path opacity="0.27" d="M185.686 113.879C187.956 73.4218 156.909 38.7898 116.342 36.5265C75.7755 34.2632 41.0497 65.2255 38.7803 105.683C36.5108 146.14 67.557 180.772 108.124 183.035C148.691 185.299 183.417 154.336 185.686 113.879Z" fill="#939393"/>
<path opacity="0.277" d="M186.265 113.644C188.133 73.1849 156.759 38.876 116.191 37.013C75.6218 35.1501 41.2199 66.4384 39.3519 106.898C37.4839 147.357 68.8571 181.666 109.426 183.529C149.995 185.392 184.397 154.103 186.265 113.644Z" fill="#919191"/>
<path opacity="0.284" d="M186.874 113.542C188.375 73.0914 156.71 39.0859 116.15 37.5892C75.5889 36.0925 41.4913 67.6713 39.9906 108.122C38.4898 148.574 70.1542 182.579 110.715 184.076C151.276 185.572 185.373 153.994 186.874 113.542Z" fill="#8F8F8F"/>
<path opacity="0.291" d="M187.546 113.415C188.682 72.9567 156.716 39.2407 116.148 38.1079C75.5808 36.9751 41.7735 68.8544 40.6376 109.312C39.5017 149.77 71.4674 183.486 112.035 184.619C152.602 185.752 186.41 153.873 187.546 113.415Z" fill="#8C8C8C"/>
<path opacity="0.298" d="M188.035 113.215C188.772 72.7847 156.505 39.4139 115.965 38.6792C75.4249 37.9445 41.9636 70.1243 41.2269 110.555C40.4903 150.985 72.7572 184.356 113.297 185.091C153.837 185.825 187.298 153.645 188.035 113.215Z" fill="#8A8A8A"/>
<path opacity="0.305" d="M188.606 113.056C188.963 72.6419 156.401 39.5906 115.877 39.2344C75.3531 38.8782 42.2122 71.3519 41.855 111.767C41.4979 152.181 74.0596 185.232 114.584 185.589C155.108 185.945 188.249 153.471 188.606 113.056Z" fill="#878787"/>
<path opacity="0.312" d="M115.83 186.079C156.335 186.079 189.17 153.333 189.17 112.937C189.17 72.5419 156.335 39.7951 115.83 39.7951C75.3251 39.7951 42.4895 72.5419 42.4895 112.937C42.4895 153.333 75.3251 186.079 115.83 186.079Z" fill="#858585"/>
<path opacity="0.319" d="M117.146 186.565C157.628 186.171 190.125 153.122 189.729 112.749C189.334 72.3765 156.195 39.9678 115.713 40.3624C75.2311 40.757 42.7345 73.8055 43.1302 114.178C43.5259 154.551 76.6639 186.96 117.146 186.565Z" fill="#838383"/>
<path opacity="0.326" d="M118.42 187.044C158.876 186.278 191.049 152.949 190.281 112.603C189.512 72.2563 156.093 40.1701 115.637 40.9363C75.1816 41.7026 43.0084 75.0311 43.7768 115.378C44.5451 155.724 77.9639 187.81 118.42 187.044Z" fill="#808080"/>
<path opacity="0.333" d="M119.697 187.586C160.139 186.456 192.006 152.844 190.874 112.511C189.741 72.1785 156.038 40.3976 115.596 41.527C75.1539 42.6563 43.2869 76.2681 44.4193 116.601C45.5517 156.934 79.2546 188.715 119.697 187.586Z" fill="#7E7E7E"/>
<path opacity="0.34" d="M120.955 187.983C161.349 186.481 192.873 152.607 191.367 112.323C189.862 72.0386 155.896 40.5993 115.502 42.1011C75.109 43.6029 43.5845 77.4771 45.0904 117.761C46.5962 158.045 80.5622 189.485 120.955 187.983Z" fill="#7C7C7C"/>
<path opacity="0.347" d="M122.213 188.444C162.57 186.58 193.77 152.441 191.901 112.193C190.032 71.9448 155.8 40.8286 115.443 42.6928C75.086 44.5571 43.8855 78.6959 45.7548 118.944C47.6241 159.192 81.8554 190.308 122.213 188.444Z" fill="#797979"/>
<path opacity="0.353" d="M123.464 188.899C163.782 186.676 194.659 152.278 192.429 112.069C190.2 71.86 155.708 41.0666 115.39 43.29C75.0726 45.5134 44.1958 79.9116 46.4252 120.121C48.6546 160.329 83.146 191.123 123.464 188.899Z" fill="#777777"/>
<path opacity="0.36" d="M124.71 189.348C164.985 186.769 195.538 152.116 192.952 111.95C190.366 71.7835 155.62 41.313 115.344 43.8921C75.0691 46.4713 44.516 81.1234 47.1021 121.29C49.6882 161.456 84.4343 191.927 124.71 189.348Z" fill="#747474"/>
<path opacity="0.367" d="M125.945 189.794C166.176 186.864 196.407 151.963 193.469 111.842C190.531 71.7206 155.536 41.5711 115.306 44.5012C75.0755 47.4314 44.8443 82.3315 47.7824 122.453C50.7205 162.574 85.7152 192.724 125.945 189.794Z" fill="#727272"/>
<path opacity="0.374" d="M127.27 190.246C167.465 186.949 197.37 151.779 194.064 111.692C190.758 71.6056 155.493 41.7816 115.298 45.0786C75.1025 48.3756 45.1977 83.5452 48.5036 123.632C51.8096 163.719 87.0744 193.543 127.27 190.246Z" fill="#707070"/>
<path opacity="0.381" d="M128.4 190.667C168.531 187.046 198.121 151.665 194.49 111.642C190.859 71.6192 155.382 42.1097 115.251 45.731C75.119 49.3522 45.5296 84.7329 49.1607 124.756C52.7917 164.779 88.2683 194.288 128.4 190.667Z" fill="#6D6D6D"/>
<path opacity="0.388" d="M129.614 191.097C169.692 187.137 198.963 151.525 194.993 111.555C191.022 71.5851 155.313 42.3932 115.235 46.3531C75.1569 50.3131 45.8859 85.9253 49.8565 125.895C53.8272 165.865 89.5359 195.057 129.614 191.097Z" fill="#6B6B6B"/>
<path opacity="0.395" d="M130.806 191.482C170.818 187.187 199.763 151.356 195.456 111.452C191.149 71.5484 155.221 42.6821 115.209 46.9775C75.1968 51.273 46.2523 87.1037 50.5594 127.008C54.8665 166.912 90.7943 195.778 130.806 191.482Z" fill="#696969"/>
<path opacity="0.402" d="M132.018 191.945C171.983 187.321 200.622 151.263 195.986 111.406C191.35 71.5494 155.194 42.9874 115.229 47.611C75.2646 52.2345 46.6252 88.2928 51.2612 128.149C55.8973 168.006 92.0533 196.568 132.018 191.945Z" fill="#666666"/>
<path opacity="0.409" d="M133.208 192.362C173.112 187.414 201.438 151.141 196.477 111.344C191.515 71.5475 155.143 43.2976 115.239 48.246C75.3346 53.1945 47.0081 89.4675 51.97 129.264C56.9319 169.061 93.3031 197.311 133.208 192.362Z" fill="#646464"/>
<path opacity="0.416" d="M134.386 192.777C174.228 187.509 202.245 151.027 196.962 111.293C191.68 71.5583 155.1 43.6176 115.258 48.8854C75.4157 54.1533 47.3992 90.6348 52.6814 130.369C57.9635 170.104 94.5439 198.044 134.386 192.777Z" fill="#616161"/>
<path opacity="0.423" d="M135.558 193.186C175.336 187.603 203.044 150.918 197.446 111.248C191.848 71.5773 155.063 43.9441 115.286 49.5272C75.5077 55.1102 47.7997 91.7953 53.3979 131.466C58.9961 171.136 95.7806 198.769 135.558 193.186Z" fill="#5F5F5F"/>
<path opacity="0.43" d="M136.687 193.589C176.394 187.703 203.799 150.83 197.897 111.23C191.995 71.6296 155.022 44.299 115.314 50.185C75.6073 56.0709 48.2026 92.9445 54.1045 132.544C60.0064 172.144 96.9799 199.475 136.687 193.589Z" fill="#5D5D5D"/>
<path opacity="0.437" d="M137.874 193.996C177.517 187.798 204.617 150.723 198.403 111.187C192.188 71.65 155.013 44.6234 115.369 50.821C75.7253 57.0187 48.6254 94.0937 54.8399 133.63C61.0543 173.167 98.2298 200.194 137.874 193.996Z" fill="#5A5A5A"/>
<path opacity="0.444" d="M138.974 194.469C178.56 187.989 205.383 150.732 198.886 111.254C192.388 71.7749 155.031 45.024 115.445 51.5038C75.8596 57.9836 49.0362 95.2402 55.5336 134.719C62.0309 174.198 99.3885 200.948 138.974 194.469Z" fill="#585858"/>
<path opacity="0.45" d="M140.149 194.796C179.652 188.005 206.156 150.563 199.347 111.166C192.537 71.7693 154.994 45.337 115.49 52.1279C75.9865 58.9187 49.4826 96.3612 56.2918 135.758C63.1011 175.155 100.645 201.587 140.149 194.796Z" fill="#565656"/>
<path opacity="0.457" d="M141.275 195.19C180.706 188.11 206.916 150.491 199.816 111.167C192.716 71.8421 154.996 45.7032 115.564 52.7837C76.1334 59.8643 49.9237 97.483 57.0234 136.808C64.1232 176.132 101.844 202.271 141.275 195.19Z" fill="#535353"/>
<path opacity="0.464" d="M142.389 195.584C181.747 188.22 207.666 150.431 200.282 111.18C192.898 71.9288 155.007 46.0793 115.649 53.4434C76.2915 60.8074 50.3718 98.5966 57.7559 137.848C65.1399 177.099 103.031 202.949 142.389 195.584Z" fill="#515151"/>
<path opacity="0.471" d="M143.495 195.975C182.778 188.332 208.41 150.378 200.746 111.201C193.083 72.0245 155.025 46.4613 115.743 54.1042C76.46 61.747 50.8276 99.7016 58.4911 138.878C66.1547 178.055 104.212 203.618 143.495 195.975Z" fill="#4E4E4E"/>
<path opacity="0.478" d="M144.52 196.379C183.723 188.48 209.081 150.382 201.161 111.286C193.241 72.1897 155.04 46.8993 115.838 54.7983C76.6354 62.6974 51.2765 100.795 59.197 139.891C67.1174 178.987 105.318 204.278 144.52 196.379Z" fill="#4C4C4C"/>
<path opacity="0.485" d="M145.676 196.753C184.806 188.569 209.875 150.299 201.669 111.274C193.463 72.2499 155.089 47.2487 115.959 55.4326C76.8285 63.6165 51.7596 101.886 59.9657 140.911C68.1718 179.935 106.545 204.937 145.676 196.753Z" fill="#4A4A4A"/>
<path opacity="0.492" d="M146.739 197.095C185.781 188.646 210.562 150.234 202.091 111.298C193.619 72.3618 155.102 47.6471 116.061 56.0958C77.0195 64.5445 52.2379 102.957 60.7095 141.893C69.1811 180.829 107.698 205.544 146.739 197.095Z" fill="#474747"/>
<path opacity="0.499" d="M147.82 197.524C186.794 188.819 211.313 150.253 202.585 111.384C193.857 72.5154 155.187 48.0625 116.213 56.7671C77.2384 65.4717 52.7192 104.038 61.4474 142.906C70.1756 181.775 108.846 206.228 147.82 197.524Z" fill="#454545"/>
<path opacity="0.506" d="M148.853 197.854C187.734 188.897 211.972 150.202 202.99 111.426C194.009 72.6504 155.208 48.4779 116.328 57.4353C77.4469 66.3928 53.209 105.088 62.1906 143.864C71.1723 182.639 109.972 206.812 148.853 197.854Z" fill="#434343"/>
<path opacity="0.513" d="M149.928 198.289C188.743 189.084 212.727 150.24 203.497 111.53C194.267 72.8195 155.319 48.9006 116.503 58.1056C77.688 67.3106 53.7043 106.154 62.9342 144.864C72.1642 183.575 111.113 207.494 149.928 198.289Z" fill="#404040"/>
<path opacity="0.52" d="M150.967 198.671C189.702 189.224 213.424 150.249 203.952 111.619C194.479 72.988 155.399 49.3301 116.663 58.7772C77.928 68.2243 54.2061 107.199 63.6788 145.83C73.1515 184.46 112.232 208.118 150.967 198.671Z" fill="#3E3E3E"/>
<path opacity="0.527" d="M151.998 199.051C190.652 189.367 214.116 150.265 204.405 111.715C194.694 73.1643 155.486 49.7641 116.832 59.4486C78.1768 69.1332 54.7132 108.235 64.424 146.786C74.1348 185.336 113.343 208.736 151.998 199.051Z" fill="#3B3B3B"/>
<path opacity="0.534" d="M153.02 199.431C191.594 189.513 214.802 150.288 204.858 111.819C194.914 73.3492 155.582 50.2032 117.009 60.1205C78.4351 70.0379 55.2263 109.263 65.1706 147.733C75.1148 186.202 114.446 209.348 153.02 199.431Z" fill="#393939"/>
<path opacity="0.541" d="M153.974 199.874C192.474 189.748 215.454 150.414 205.302 112.018C195.149 73.6221 155.709 50.704 117.209 60.8291C78.7085 70.9543 55.7283 110.288 65.8808 148.684C76.0334 187.081 115.474 209.999 153.974 199.874Z" fill="#373737"/>
<path opacity="0.548" d="M155.037 200.19C193.448 189.822 216.159 150.363 205.763 112.056C195.367 73.7486 155.801 51.0991 117.39 61.4667C78.9792 71.8344 56.2683 111.293 66.6641 149.601C77.0598 187.908 116.626 210.557 155.037 200.19Z" fill="#343434"/>
<path opacity="0.554" d="M156.032 200.569C194.362 189.983 216.829 150.413 206.214 112.187C195.6 73.9611 155.923 51.5545 117.593 62.1403C79.2639 72.7262 56.7966 112.296 67.4112 150.522C78.0257 188.748 117.703 211.154 156.032 200.569Z" fill="#323232"/>
<path opacity="0.561" d="M157.018 200.949C195.266 190.15 217.494 150.473 206.666 112.329C195.838 74.1841 156.054 52.016 117.806 62.8149C79.5579 73.6137 57.3298 113.29 68.1579 151.435C78.986 189.579 118.77 211.748 157.018 200.949Z" fill="#303030"/>
<path opacity="0.568" d="M157.996 201.325C196.162 190.318 218.154 150.538 207.116 112.475C196.079 74.4126 156.191 52.4802 118.025 63.4881C79.8595 74.4959 57.8678 114.275 68.9054 152.338C79.9431 190.401 119.83 212.333 157.996 201.325Z" fill="#2D2D2D"/>
<path opacity="0.575" d="M158.968 201.704C197.052 190.491 218.811 150.612 207.568 112.631C196.326 74.6494 156.338 52.949 118.254 64.1613C80.17 75.3737 58.4108 115.253 69.6535 153.234C80.8962 191.215 120.884 212.916 158.968 201.704Z" fill="#2B2B2B"/>
<path opacity="0.582" d="M159.928 202.084C197.931 190.672 219.462 150.697 208.02 112.797C196.577 74.8973 156.494 53.4243 118.491 64.836C80.4882 76.2476 58.957 116.223 70.3996 154.123C81.8421 192.023 121.925 213.496 159.928 202.084Z" fill="#282828"/>
<path opacity="0.589" d="M160.825 202.494C198.747 190.903 220.067 150.848 208.444 113.029C196.822 75.2098 156.658 53.9476 118.737 65.5387C80.8148 77.1297 59.495 117.185 71.1175 155.004C82.7399 192.823 122.903 214.085 160.825 202.494Z" fill="#262626"/>
<path opacity="0.596" d="M161.831 202.841C199.671 191.043 220.755 150.885 208.924 113.148C197.094 75.4103 156.828 54.3828 118.988 66.1815C81.1481 77.9803 60.0636 118.137 71.8943 155.875C83.725 193.613 123.991 214.64 161.831 202.841Z" fill="#242424"/>
<path opacity="0.603" d="M162.77 203.221C200.529 191.235 221.395 150.992 209.377 113.335C197.359 75.6784 157.006 54.8682 119.248 66.8541C81.4889 78.84 60.6223 119.083 72.6407 156.74C84.6591 194.397 125.011 215.207 162.77 203.221Z" fill="#212121"/>
<path opacity="0.61" d="M163.701 203.602C201.379 191.433 222.032 151.107 209.83 113.531C197.628 75.9549 157.193 55.3582 119.515 67.5268C81.8375 79.6954 61.1849 120.021 73.3865 157.597C85.588 195.173 126.023 215.77 163.701 203.602Z" fill="#1F1F1F"/>
<path opacity="0.617" d="M164.626 203.982C202.223 191.634 222.665 151.229 210.284 113.733C197.903 76.2373 157.388 55.8507 119.79 68.1982C82.1931 80.5457 61.7513 120.952 74.1323 158.447C86.5133 195.943 127.029 216.33 164.626 203.982Z" fill="#1D1D1D"/>
<path opacity="0.624" d="M165.542 204.364C203.059 191.842 223.294 151.359 210.738 113.944C198.182 76.528 157.59 56.3477 120.073 68.8697C82.5554 81.3917 62.3204 121.874 74.8764 159.29C87.4323 196.706 128.025 216.886 165.542 204.364Z" fill="#1A1A1A"/>
<path opacity="0.631" d="M166.453 204.745C203.89 192.052 223.92 151.495 211.193 114.159C198.465 76.823 157.798 56.8464 120.361 69.5398C82.9241 82.2333 62.8933 122.79 75.6212 160.126C88.349 197.462 129.016 217.438 166.453 204.745Z" fill="#181818"/>
<path opacity="0.638" d="M167.355 205.128C204.713 192.267 224.543 151.64 211.648 114.383C198.753 77.1264 158.015 57.3494 120.657 70.2099C83.2996 83.0704 63.469 123.698 76.3643 160.955C89.2597 198.211 129.998 217.988 167.355 205.128Z" fill="#151515"/>
<path opacity="0.645" d="M168.251 205.512C205.53 192.488 225.163 151.791 212.104 114.614C199.045 77.4361 158.238 57.8555 120.96 70.8793C83.6817 83.9031 64.048 124.599 77.1071 161.777C90.1662 198.955 130.973 218.535 168.251 205.512Z" fill="#131313"/>
<path opacity="0.651" d="M169.143 205.846C206.332 192.657 225.759 151.898 212.533 114.81C199.308 77.7214 158.439 58.3476 121.25 71.5372C84.0611 84.7269 64.6348 125.485 77.8602 162.574C91.0855 199.662 131.954 219.036 169.143 205.846Z" fill="#111111"/>
<path opacity="0.658" d="M170.024 206.28C207.146 192.94 226.395 152.115 213.019 115.094C199.642 78.0728 158.706 58.8756 121.585 72.2156C84.4634 85.5557 65.2142 126.381 78.5904 163.402C91.9666 200.423 132.903 219.621 170.024 206.28Z" fill="#0E0E0E"/>
<path opacity="0.665" d="M170.902 206.665C207.945 193.172 227.007 152.286 213.478 115.342C199.948 78.3992 158.951 59.389 121.907 72.882C84.8637 86.375 65.802 127.262 79.3316 164.205C92.8612 201.148 133.859 220.158 170.902 206.665Z" fill="#0C0C0C"/>
<path opacity="0.672" d="M171.772 207.052C208.738 193.41 227.616 152.465 213.937 115.599C200.257 78.7324 159.201 59.9058 122.235 73.5481C85.2691 87.1904 66.3914 128.136 80.0707 165.002C93.75 201.868 134.806 220.695 171.772 207.052Z" fill="#0A0A0A"/>
<path opacity="0.679" d="M172.616 207.38C209.49 193.59 228.172 152.6 214.344 115.826C200.517 79.0515 159.415 60.4195 122.542 74.2098C85.668 88 66.9855 128.991 80.8131 165.765C94.6407 202.539 135.742 221.171 172.616 207.38Z" fill="#070707"/>
<path opacity="0.686" d="M173.531 207.819C210.346 193.879 228.859 152.815 214.881 116.1C200.903 79.3843 159.728 60.9213 122.913 74.8613C86.0986 88.8014 67.5856 129.866 81.5634 166.581C95.5411 203.296 136.717 221.759 173.531 207.819Z" fill="#050505"/>
<path opacity="0.693" d="M174.349 208.216C211.086 194.145 229.43 153.038 215.32 116.4C201.211 79.7627 159.992 61.4691 123.255 75.5402C86.5184 89.6114 68.1752 130.719 82.2845 167.356C96.3938 203.994 137.613 222.288 174.349 208.216Z" fill="#020202"/>
<path opacity="0.7" d="M175.196 208.608C211.858 194.4 230.029 153.243 215.783 116.681C201.537 80.1182 160.269 61.9958 123.607 76.2031C86.9456 90.4105 68.774 131.568 83.0199 168.13C97.2658 204.693 138.534 222.815 175.196 208.608Z" fill="black"/>
</g>
<path d="M207.929 204.097C242.21 169.908 242.21 114.478 207.929 80.2895C173.648 46.101 118.067 46.101 83.7863 80.2895C49.5052 114.478 49.5052 169.908 83.7863 204.097C118.067 238.285 173.648 238.285 207.929 204.097Z" fill="url(#paint0_linear_116_119)"/>
<path d="M205.271 201.447C238.085 168.722 238.085 115.664 205.271 82.9394C172.458 50.2144 119.256 50.2144 86.4426 82.9394C53.629 115.664 53.629 168.722 86.4426 201.447C119.256 234.172 172.458 234.172 205.271 201.447Z" fill="#F1F1F1"/>
<path d="M160.349 135.714H162.778V116.343H157.922V104.237C157.922 103.919 157.859 103.604 157.737 103.311C157.615 103.017 157.437 102.75 157.211 102.525C156.986 102.301 156.718 102.122 156.423 102.001C156.129 101.879 155.813 101.817 155.494 101.817H136.073C135.754 101.817 135.438 101.879 135.144 102.001C134.849 102.122 134.582 102.301 134.356 102.526C134.131 102.75 133.952 103.017 133.83 103.311C133.708 103.605 133.645 103.919 133.645 104.237V116.343H128.79V135.714H131.217C131.536 135.714 131.852 135.776 132.146 135.898C132.441 136.019 132.709 136.198 132.934 136.422C133.16 136.647 133.339 136.914 133.461 137.208C133.583 137.502 133.645 137.817 133.645 138.135V147.82C133.645 148.138 133.583 148.453 133.461 148.747C133.339 149.04 133.16 149.307 132.934 149.532C132.709 149.757 132.441 149.935 132.146 150.057C131.852 150.179 131.536 150.241 131.217 150.241H128.79V174.453H162.778V150.241H160.35C160.031 150.241 159.715 150.178 159.42 150.057C159.126 149.935 158.858 149.757 158.633 149.532C158.407 149.307 158.228 149.04 158.106 148.747C157.985 148.453 157.922 148.138 157.922 147.82V138.135C157.922 137.817 157.985 137.502 158.106 137.208C158.228 136.915 158.407 136.648 158.633 136.423C158.858 136.198 159.126 136.02 159.42 135.898C159.715 135.777 160.03 135.714 160.349 135.714ZM153.066 116.343H138.5V106.659H153.066V116.343Z" fill="#52C0AA"/>
<path d="M166.588 137.552H160.443C160.257 137.56 160.082 137.641 159.957 137.777C159.831 137.914 159.764 138.094 159.771 138.28V147.485C159.764 147.671 159.831 147.851 159.957 147.988C160.082 148.124 160.257 148.205 160.443 148.213H166.588C166.774 148.205 166.949 148.124 167.074 147.987C167.2 147.851 167.267 147.671 167.26 147.485V138.28C167.267 138.094 167.2 137.914 167.074 137.778C166.949 137.641 166.774 137.56 166.588 137.552Z" fill="#74C0AA"/>
<path d="M122.642 147.82V138.135C122.642 137.817 122.705 137.502 122.827 137.208C122.949 136.914 123.128 136.647 123.353 136.422C123.579 136.197 123.847 136.019 124.141 135.898C124.436 135.776 124.752 135.714 125.071 135.714H127.498V116.343H115.036C113.191 116.345 111.422 117.077 110.117 118.378C108.812 119.679 108.078 121.443 108.076 123.283V167.511C108.078 169.351 108.812 171.115 110.116 172.416C111.421 173.717 113.19 174.449 115.034 174.451H127.497V150.241H125.07C124.751 150.241 124.435 150.179 124.14 150.057C123.846 149.935 123.578 149.757 123.352 149.532C123.127 149.307 122.948 149.041 122.826 148.747C122.704 148.453 122.641 148.138 122.641 147.82H122.642Z" fill="#48A896"/>
<path d="M176.717 116.343H164.254V135.714H166.681C167 135.714 167.316 135.776 167.611 135.898C167.905 136.019 168.173 136.197 168.398 136.422C168.624 136.647 168.803 136.914 168.925 137.208C169.047 137.502 169.109 137.817 169.109 138.135V147.82C169.109 148.138 169.046 148.453 168.924 148.747C168.803 149.04 168.624 149.307 168.398 149.532C168.173 149.757 167.905 149.935 167.61 150.057C167.316 150.179 167 150.241 166.681 150.241H164.254V174.453H176.717C178.562 174.451 180.331 173.719 181.635 172.417C182.94 171.116 183.673 169.351 183.675 167.511V123.283C183.672 121.444 182.939 119.68 181.634 118.379C180.33 117.078 178.561 116.346 176.717 116.343Z" fill="#48A896"/>
<path d="M130.941 137.421H125.161C124.964 137.432 124.78 137.521 124.649 137.667C124.517 137.813 124.448 138.005 124.458 138.201V147.564C124.448 147.76 124.517 147.952 124.649 148.098C124.78 148.244 124.964 148.333 125.161 148.344H130.943C131.14 148.333 131.324 148.244 131.456 148.098C131.587 147.952 131.656 147.76 131.646 147.564V138.201C131.656 138.005 131.587 137.812 131.455 137.666C131.323 137.52 131.138 137.432 130.941 137.421Z" fill="#74C0AA"/>
</g>
<defs>
<linearGradient id="paint0_linear_116_119" x1="-4125.9" y1="-4178.19" x2="-3944.91" y2="-4159.27" gradientUnits="userSpaceOnUse">
<stop stop-color="white"/>
<stop offset="0.997" stop-color="#D5D4D4"/>
</linearGradient>
<clipPath id="clip0_116_119">
<rect width="270" height="266" fill="white"/>
</clipPath>
</defs>
</svg>
