<svg width="25" height="19" viewBox="0 0 25 19" fill="none" xmlns="http://www.w3.org/2000/svg">
<path d="M1.5625 3H23.4375C24.3004 3 25 2.32843 25 1.5C25 0.671573 24.3004 0 23.4375 0H1.5625C0.699555 0 0 0.671573 0 1.5C0 2.32843 0.699555 3 1.5625 3Z" fill="#F59021"/>
<path d="M23.4375 7.75H1.5625C0.699555 7.75 0 8.42157 0 9.25C0 10.0784 0.699555 10.75 1.5625 10.75H23.4375C24.3004 10.75 25 10.0784 25 9.25C25 8.42157 24.3004 7.75 23.4375 7.75Z" fill="#F59021"/>
<path d="M23.4375 15.5H1.5625C0.699555 15.5 0 16.1716 0 17C0 17.8284 0.699555 18.5 1.5625 18.5H23.4375C24.3004 18.5 25 17.8284 25 17C25 16.1716 24.3004 15.5 23.4375 15.5Z" fill="#F59021"/>
</svg>
