<svg width="18" height="18" viewBox="0 0 18 18" fill="none" xmlns="http://www.w3.org/2000/svg">
<path d="M1.82274 17C1.61198 17 1.40123 16.9198 1.2411 16.7585C0.919634 16.437 0.919634 15.9159 1.2411 15.5944L15.5944 1.2411C15.9159 0.919634 16.437 0.919634 16.7585 1.2411C17.08 1.56256 17.08 2.08373 16.7585 2.40539L2.40539 16.7585C2.24406 16.9188 2.0333 17 1.82274 17Z" fill="#F59021" stroke="#F59021"/>
<path d="M16.1771 17C15.9663 17 15.7557 16.9198 15.5954 16.7585L1.2411 2.40539C0.919634 2.08373 0.919634 1.56256 1.2411 1.2411C1.56256 0.919634 2.08373 0.919634 2.40539 1.2411L16.7585 15.5944C17.08 15.9159 17.08 16.437 16.7585 16.7585C16.5972 16.9188 16.3866 17 16.1771 17Z" fill="#F59021" stroke="#F59021"/>
</svg>
