<svg width="939" height="452" viewBox="0 0 939 452" fill="none" xmlns="http://www.w3.org/2000/svg">
<g clip-path="url(#clip0_187_2)">
<path d="M101.594 139.769L65.5437 104.627L47.2485 85.8997L0 132.531L18.583 151.545L109.331 240.021L157.49 194.874L114.287 152.747L101.594 139.769Z" fill="#F59121"/>
<path d="M205.889 149.503L157.489 194.874L205.029 241.225L253.336 195.936L209.557 153.254L205.889 149.503Z" fill="#54C1AA"/>
<path d="M202.686 146.226L161.244 105.829L158.448 102.967L110.222 148.177L101.596 139.769L114.289 152.749L157.497 194.876L205.897 149.504L202.686 146.226Z" fill="#FCCB51"/>
<path d="M313.392 48.6247L254.283 104.045L254.329 104.095L313.438 48.6746L313.392 48.6247Z" fill="#54C1AA"/>
<path d="M268.285 0L158.442 102.967L161.238 105.829L202.68 146.226L205.916 149.379L254.275 104.045L313.41 48.6197L268.285 0Z" fill="#F59121"/>
<path d="M205.922 149.378L202.686 146.226L205.89 149.502L254.336 104.093L254.288 104.045L205.922 149.378Z" fill="#54C1AA"/>
<path d="M256.523 106.339L254.329 104.095L205.883 149.504L209.551 153.259L253.337 195.936L301.704 150.593L291.963 140.892L256.523 106.339Z" fill="#219B9B"/>
<path d="M408.569 49.2341L363.986 1.20192L313.411 48.6197L313.457 48.67L254.329 104.099L256.523 106.342L301.199 149.892L291.964 140.89L301.705 150.591L409.155 49.8629L408.569 49.2341Z" fill="#54C1AA"/>
<path d="M408.569 49.2342L409.157 49.8666L408.569 49.2342Z" fill="#1A3F70"/>
<path d="M459.864 2.36063L409.156 49.8665L253.336 195.936L300.306 241.73L504.433 50.3767L459.864 2.36063Z" fill="#1A3F70"/>
<path d="M464.877 255.128C456.44 250.42 449.587 243.298 445.189 234.666C440.463 225.7 438.101 214.884 438.103 202.218C438.103 189.403 440.465 178.437 445.189 169.32C449.537 160.595 456.397 153.387 464.877 148.633C473.719 143.852 483.637 141.44 493.676 141.627C508.525 141.627 520.787 145.81 530.462 154.177C540.137 162.544 545.424 174.113 546.324 188.883H524.5C523.898 179.839 520.859 172.98 515.382 168.307C509.906 163.634 502.744 161.298 493.896 161.3C483.547 161.3 475.447 164.692 469.596 171.474C463.746 178.257 460.822 188.507 460.826 202.224C460.826 215.638 463.75 225.662 469.6 232.296C475.449 238.93 483.549 242.246 493.9 242.243C502.6 242.243 509.687 239.983 515.163 235.462C520.638 230.94 523.677 224.308 524.28 215.565H546.331C545.279 230.188 539.915 241.606 530.242 249.82C520.568 258.033 508.382 262.141 493.683 262.142C483.641 262.328 473.721 259.913 464.877 255.128Z" fill="#8C8C8C"/>
<path d="M571.07 143.883H593.344V159.486C595.839 154.294 599.687 149.879 604.48 146.711C609.27 143.603 614.868 141.991 620.569 142.076C624.456 142.166 628.315 142.774 632.044 143.883V164.911H628.892C625.549 163.8 622.061 163.191 618.542 163.104C615.047 162.973 611.574 163.696 608.419 165.213C605.265 166.729 602.524 168.992 600.432 171.808C595.844 178.126 593.506 185.812 593.795 193.627V259.65H571.07V143.883Z" fill="#8C8C8C"/>
<path d="M742.062 208.332H661.067C661.968 219.488 665.193 228.118 670.742 234.22C676.291 240.322 683.79 243.376 693.24 243.382C701.486 243.382 707.936 241.31 712.59 237.165C717.323 232.857 720.29 226.933 720.913 220.547H740.263C738.462 233.961 733.363 244.211 724.964 251.296C716.456 258.421 705.661 262.198 694.59 261.923C682.891 261.923 672.88 259.288 664.556 254.018C656.33 248.858 649.796 241.381 645.766 232.517C641.467 223.008 639.315 212.661 639.466 202.218C639.332 191.75 641.322 181.364 645.316 171.695C648.976 162.793 655.157 155.167 663.09 149.763C671.039 144.337 680.788 141.624 692.339 141.623C703.89 141.622 713.414 144.373 720.911 149.876C728.34 155.287 734.046 162.749 737.337 171.356C740.841 180.477 742.596 190.181 742.51 199.958C742.532 202.756 742.382 205.553 742.062 208.332ZM670.068 168.65C664.814 174.159 661.814 181.734 661.067 191.374H721.133C720.681 182.032 718.018 174.533 713.144 168.876C708.269 163.22 701.183 160.393 691.885 160.397C682.585 160.392 675.313 163.141 670.068 168.643V168.65Z" fill="#8C8C8C"/>
<path d="M775.355 245.52C766.806 234.439 762.532 219.856 762.532 201.769C762.532 183.683 766.806 169.137 775.355 158.131C783.905 147.129 796.279 141.627 812.478 141.625C819.907 141.548 827.267 143.051 834.077 146.035C840.825 149.1 846.59 153.993 850.726 160.165V103.639H873.453V259.65H850.953V243.365C842.1 255.877 829.348 262.132 812.696 262.131C796.352 262.135 783.905 256.598 775.355 245.52ZM842.853 231.507C848.702 224.201 851.627 214.215 851.628 201.547C851.628 189.338 848.703 179.654 842.853 172.493C840.015 168.983 836.403 166.185 832.302 164.321C828.202 162.457 823.726 161.578 819.229 161.753C807.98 161.753 799.544 165.183 793.918 172.042C788.293 178.901 785.481 188.736 785.481 201.547C785.481 214.813 788.293 224.951 793.918 231.958C799.544 238.966 807.98 242.471 819.229 242.473C823.747 242.643 828.242 241.738 832.347 239.833C836.452 237.927 840.052 235.075 842.853 231.507Z" fill="#8C8C8C"/>
<path d="M908.098 103.639H932.847V126.701H908.098V103.639ZM908.992 143.881H931.717V259.648H908.997L908.992 143.881Z" fill="#8C8C8C"/>
<path d="M228.838 365.304H152.155C153.007 375.868 156.06 384.038 161.315 389.815C166.569 395.591 173.67 398.481 182.615 398.485C190.423 398.485 196.529 396.522 200.935 392.597C205.416 388.52 208.225 382.911 208.816 376.865H227.134C225.43 389.568 220.603 399.269 212.654 405.969C204.598 412.715 194.379 416.29 183.897 416.03C173.9 416.322 164.03 413.722 155.46 408.54C147.678 403.658 141.493 396.586 137.675 388.203C133.604 379.201 131.567 369.405 131.709 359.518C131.583 349.606 133.469 339.773 137.251 330.619C140.716 322.191 146.567 314.972 154.078 309.856C161.604 304.718 170.835 302.149 181.77 302.149C192.704 302.149 201.721 304.753 208.821 309.962C215.855 315.085 221.258 322.15 224.374 330.299C227.692 338.934 229.354 348.122 229.274 357.378C229.291 360.027 229.145 362.674 228.838 365.304ZM160.677 327.737C155.703 332.949 152.863 340.121 152.155 349.251H209.034C208.606 340.404 206.085 333.304 201.47 327.951C196.855 322.597 190.146 319.921 181.342 319.924C172.533 319.924 165.644 322.528 160.677 327.737Z" fill="#8C8C8C"/>
<path d="M253.547 304.296H274.848V317.139C278.135 312.389 282.571 308.556 287.737 306.001C293.217 303.365 299.233 302.045 305.308 302.147C311.616 301.978 317.846 303.571 323.306 306.75C328.426 309.914 332.359 314.694 334.49 320.342C341.164 308.213 352.169 302.148 367.505 302.147C379.149 302.147 388.024 305.715 394.131 312.851C400.238 319.987 403.292 329.834 403.293 342.391V413.893H381.776V343.899C381.776 328.345 375.244 320.568 362.18 320.565C354.51 320.565 348.724 323.205 344.819 328.486C340.915 333.767 338.963 340.688 338.963 349.251V413.897H317.448V343.685C317.448 336.267 315.992 330.559 313.081 326.56C310.169 322.561 305.306 320.563 298.49 320.565C290.678 320.565 284.82 323.241 280.917 328.592C277.014 333.943 275.061 340.83 275.059 349.252V413.899H253.547V304.296Z" fill="#8C8C8C"/>
<path d="M434.176 304.296H455.476V319.926C459.47 314.179 464.91 309.599 471.24 306.653C477.712 303.639 484.769 302.105 491.902 302.162C500.823 301.947 509.595 304.488 517.035 309.441C524.284 314.476 529.94 321.497 533.331 329.67C540.856 348.563 540.856 369.642 533.331 388.536C529.908 396.75 524.216 403.807 516.928 408.872C509.469 413.881 500.656 416.459 491.687 416.256C484.47 416.349 477.316 414.89 470.705 411.977C464.434 409.164 459.134 404.545 455.476 398.704V452.005H434.176V304.296ZM508.942 387.783C514.617 380.932 517.457 371.298 517.462 358.882C517.462 346.755 514.622 337.301 508.942 330.52C503.262 323.739 495.451 320.349 485.511 320.352C481.138 320.174 476.784 321.02 472.792 322.821C468.8 324.623 465.278 327.332 462.505 330.734C456.824 337.658 453.984 347.04 453.985 358.882C453.985 371.158 456.825 380.756 462.505 387.675C465.278 391.078 468.799 393.787 472.791 395.588C476.784 397.39 481.138 398.235 485.511 398.057C495.449 398.057 503.259 394.632 508.942 387.783Z" fill="#8C8C8C"/>
<path d="M563.683 304.296H584.777V319.067C587.139 314.151 590.785 309.971 595.325 306.973C599.859 304.031 605.158 302.504 610.554 302.585C614.235 302.67 617.888 303.245 621.418 304.296V324.209H618.436C615.271 323.158 611.97 322.582 608.638 322.498C605.329 322.374 602.04 323.059 599.053 324.494C596.066 325.93 593.471 328.073 591.49 330.739C587.146 336.721 584.933 343.999 585.206 351.399V413.906H563.683V304.296Z" fill="#8C8C8C"/>
<path d="M725.568 365.304H648.876C649.73 375.868 652.782 384.038 658.034 389.815C663.287 395.591 670.387 398.481 679.337 398.485C687.145 398.485 693.251 396.522 697.655 392.597C702.136 388.52 704.946 382.911 705.537 376.865H723.855C722.15 389.568 717.323 399.269 709.375 405.969C701.319 412.714 691.1 416.289 680.618 416.03C670.622 416.322 660.752 413.722 652.183 408.54C644.399 403.659 638.214 396.587 634.396 388.203C630.326 379.201 628.289 369.405 628.432 359.518C628.306 349.606 630.192 339.773 633.974 330.619C637.44 322.191 643.291 314.972 650.801 309.856C658.325 304.718 667.556 302.149 678.493 302.149C689.43 302.149 698.447 304.753 705.544 309.962C712.578 315.085 717.981 322.15 721.097 330.299C724.415 338.934 726.077 348.122 725.995 357.378C726.014 360.026 725.871 362.674 725.568 365.304ZM657.405 327.737C652.433 332.949 649.593 340.121 648.885 349.251H705.758C705.331 340.404 702.81 333.304 698.197 327.951C693.583 322.597 686.873 319.921 678.067 319.924C669.261 319.924 662.374 322.528 657.405 327.737Z" fill="#8C8C8C"/>
<path d="M755.812 407.69C746.016 400.841 741.117 390.566 741.117 376.865H760.714C760.714 385 763.128 390.923 767.956 394.633C772.5 398.057 779.174 399.769 787.978 399.769C793.093 399.845 798.108 398.351 802.356 395.488C804.223 394.126 805.718 392.315 806.704 390.219C807.691 388.124 808.136 385.814 808 383.5C808.075 381.853 807.801 380.21 807.195 378.678C806.589 377.147 805.665 375.763 804.486 374.618C802.051 372.352 799.138 370.669 795.966 369.693C792.629 368.623 787.41 367.231 780.309 365.518C773.759 364.083 767.318 362.188 761.032 359.847C756.208 357.973 751.925 354.92 748.572 350.963C745.164 346.968 743.459 341.617 743.458 334.907C743.458 324.349 747.152 316.251 754.541 310.611C761.93 304.971 771.657 302.153 783.722 302.156C795.507 302.156 804.88 304.583 811.84 309.436C816.511 312.403 820.301 316.58 822.811 321.528C825.347 326.683 826.625 332.37 826.539 338.119H807.788C807.788 330.983 805.444 325.846 800.758 322.707C796.085 319.843 790.675 318.428 785.205 318.639C779.673 318.393 774.181 319.689 769.336 322.385C767.455 323.424 765.894 324.962 764.823 326.831C763.751 328.7 763.21 330.828 763.258 332.985C763.222 334.46 763.543 335.921 764.192 337.245C764.841 338.568 765.8 339.714 766.985 340.584C769.541 342.548 772.428 344.034 775.507 344.971C778.701 345.974 784.488 347.471 792.867 349.463C799.265 350.954 805.533 352.958 811.611 355.456C816.433 357.483 820.652 360.728 823.859 364.875C827.053 369.016 828.65 374.51 828.652 381.358C828.652 392.348 825.03 400.912 817.788 407.049C810.545 413.186 801.457 416.254 790.524 416.253C775.619 416.251 764.049 413.397 755.812 407.69Z" fill="#8C8C8C"/>
<path d="M856.892 407.796C850.428 402.161 847.197 394.562 847.201 385C847.201 371.016 854.656 360.596 869.565 353.74C880.641 348.891 894.416 346.465 910.889 346.462C914.584 346.462 917.424 346.534 919.409 346.676V338.541C919.409 325.127 911.315 318.42 895.127 318.42C888.416 318.152 881.757 319.703 875.849 322.912C870.807 325.906 868.287 330.972 868.289 338.11H848.47C848.47 326.121 852.908 317.13 861.783 311.137C870.658 305.144 881.415 302.15 894.054 302.154C907.261 302.154 918.053 305.294 926.431 311.574C934.81 317.853 938.999 327.275 939 339.839V413.904H919.402V399.352C914.842 404.793 909.126 409.136 902.675 412.063C896.224 414.99 889.202 416.425 882.125 416.263C871.758 416.255 863.347 413.432 856.892 407.796ZM905.671 394.633C911.248 391.387 915.962 386.833 919.409 381.36V360.81C915.433 360.526 912.454 360.383 910.471 360.382C898.969 360.382 889.525 362.238 882.14 365.951C873.759 370.092 869.57 375.871 869.572 383.29C869.47 385.525 869.889 387.754 870.795 389.798C871.701 391.842 873.07 393.645 874.792 395.064C878.729 398.069 883.593 399.584 888.531 399.343C894.556 399.323 900.467 397.698 905.664 394.633H905.671Z" fill="#8C8C8C"/>
</g>
<defs>
<clipPath id="clip0_187_2">
<rect width="939" height="452" fill="white"/>
</clipPath>
</defs>
</svg>
