<svg width="777" height="375" viewBox="0 0 777 375" fill="none" xmlns="http://www.w3.org/2000/svg">
<path d="M384.674 211.112C377.693 207.217 372.023 201.323 368.383 194.18C364.473 186.761 362.518 177.811 362.519 167.331C362.519 156.726 364.474 147.652 368.383 140.108C371.981 132.889 377.658 126.924 384.674 122.99C391.991 119.034 400.198 117.038 408.505 117.192C420.792 117.192 430.938 120.654 438.944 127.578C446.95 134.501 451.325 144.074 452.07 156.296H434.011C433.513 148.812 430.998 143.137 426.466 139.27C421.935 135.403 416.008 133.47 408.687 133.472C400.123 133.472 393.421 136.278 388.579 141.891C383.738 147.503 381.319 155.985 381.322 167.335C381.322 178.435 383.742 186.73 388.582 192.219C393.423 197.709 400.125 200.453 408.69 200.451C415.889 200.451 421.754 198.58 426.285 194.839C430.815 191.097 433.33 185.609 433.829 178.375H452.076C451.205 190.475 446.767 199.923 438.762 206.72C430.757 213.516 420.674 216.915 408.511 216.916C400.201 217.07 391.992 215.071 384.674 211.112Z" fill="white"/>
<path d="M472.546 119.06H490.978V131.971C493.042 127.675 496.226 124.022 500.192 121.399C504.156 118.828 508.788 117.494 513.506 117.564C516.723 117.639 519.915 118.142 523.001 119.06V136.46H520.393C517.627 135.541 514.741 135.037 511.828 134.965C508.937 134.856 506.062 135.455 503.452 136.709C500.842 137.964 498.574 139.837 496.843 142.167C493.047 147.395 491.112 153.755 491.351 160.222V214.854H472.546V119.06Z" fill="white"/>
<path d="M614.038 172.39H547.017C547.762 181.621 550.431 188.762 555.022 193.811C559.614 198.861 565.82 201.388 573.639 201.393C580.462 201.393 585.8 199.678 589.651 196.248C593.567 192.684 596.023 187.781 596.538 182.497H612.55C611.06 193.597 606.84 202.078 599.89 207.941C592.85 213.837 583.918 216.962 574.756 216.735C565.076 216.735 556.792 214.554 549.904 210.194C543.097 205.924 537.69 199.736 534.356 192.402C530.798 184.534 529.018 175.972 529.143 167.331C529.032 158.669 530.679 150.075 533.983 142.073C537.012 134.707 542.126 128.397 548.691 123.925C555.268 119.436 563.335 117.19 572.893 117.189C582.452 117.188 590.333 119.465 596.537 124.019C602.684 128.496 607.405 134.671 610.128 141.793C613.028 149.34 614.48 157.37 614.409 165.461C614.427 167.776 614.303 170.09 614.038 172.39ZM554.465 139.554C550.118 144.113 547.635 150.381 547.017 158.358H596.72C596.346 150.627 594.143 144.422 590.109 139.741C586.076 135.06 580.212 132.721 572.518 132.724C564.823 132.72 558.805 134.995 554.465 139.548V139.554Z" fill="white"/>
<path d="M641.587 203.162C634.514 193.993 630.977 181.925 630.977 166.959C630.977 151.993 634.514 139.957 641.587 130.85C648.662 121.746 658.902 117.193 672.306 117.191C678.453 117.128 684.544 118.371 690.178 120.841C695.762 123.377 700.532 127.425 703.955 132.533V85.7585H722.761V214.854H704.143V201.378C696.817 211.732 686.265 216.908 672.486 216.907C658.962 216.91 648.662 212.328 641.587 203.162ZM697.44 191.567C702.28 185.521 704.701 177.257 704.702 166.775C704.702 156.673 702.281 148.659 697.44 142.734C695.092 139.829 692.103 137.514 688.71 135.971C685.317 134.429 681.613 133.702 677.892 133.847C668.584 133.847 661.603 136.685 656.948 142.361C652.293 148.036 649.966 156.174 649.966 166.775C649.966 177.753 652.293 186.141 656.948 191.94C661.603 197.739 668.584 200.639 677.892 200.641C681.631 200.781 685.35 200.032 688.747 198.456C692.144 196.879 695.122 194.518 697.44 191.567Z" fill="white"/>
<path d="M751.429 85.7585H771.908V104.842H751.429V85.7585ZM752.169 119.058H770.973V214.853H752.173L752.169 119.058Z" fill="white"/>
<path d="M189.357 302.281H125.904C126.609 311.022 129.136 317.782 133.484 322.562C137.832 327.342 143.707 329.733 151.11 329.736C157.57 329.736 162.623 328.113 166.269 324.865C169.977 321.49 172.301 316.85 172.79 311.847H187.948C186.537 322.358 182.543 330.386 175.966 335.93C169.3 341.511 160.844 344.47 152.17 344.254C143.898 344.496 135.731 342.345 128.639 338.057C122.2 334.017 117.082 328.165 113.922 321.229C110.554 313.78 108.868 305.674 108.986 297.492C108.882 289.291 110.442 281.154 113.572 273.579C116.439 266.606 121.281 260.632 127.496 256.398C133.724 252.147 141.362 250.021 150.41 250.021C159.458 250.021 166.919 252.176 172.794 256.486C178.614 260.725 183.085 266.571 185.664 273.314C188.409 280.46 189.785 288.062 189.718 295.722C189.732 297.913 189.612 300.104 189.357 302.281ZM132.956 271.194C128.841 275.508 126.49 281.441 125.904 288.996H172.97C172.616 281.676 170.53 275.801 166.711 271.371C162.893 266.941 157.341 264.727 150.056 264.729C142.766 264.729 137.066 266.884 132.956 271.194Z" fill="white"/>
<path d="M209.804 251.797H227.43V262.425C230.15 258.494 233.82 255.323 238.095 253.208C242.63 251.027 247.608 249.935 252.635 250.019C257.854 249.879 263.01 251.198 267.528 253.828C271.765 256.447 275.019 260.402 276.782 265.076C282.305 255.039 291.411 250.02 304.102 250.019C313.736 250.019 321.081 252.972 326.134 258.876C331.187 264.781 333.714 272.929 333.715 283.32V342.487H315.91V284.568C315.91 271.698 310.505 265.262 299.695 265.26C293.349 265.26 288.56 267.445 285.33 271.814C282.099 276.184 280.484 281.911 280.484 288.996V342.49H262.681V284.391C262.681 278.253 261.476 273.53 259.067 270.221C256.658 266.911 252.633 265.258 246.993 265.26C240.529 265.26 235.681 267.474 232.452 271.902C229.222 276.33 227.606 282.029 227.604 288.998V342.491H209.804V251.797Z" fill="white"/>
<path d="M359.27 251.797H376.895V264.731C380.201 259.975 384.702 256.185 389.939 253.748C395.295 251.254 401.134 249.985 407.037 250.031C414.419 249.854 421.678 251.956 427.834 256.055C433.832 260.221 438.513 266.031 441.319 272.794C447.545 288.428 447.545 305.87 441.319 321.504C438.486 328.301 433.776 334.14 427.745 338.332C421.573 342.477 414.28 344.61 406.859 344.442C400.887 344.519 394.967 343.312 389.497 340.901C384.308 338.573 379.922 334.751 376.895 329.918V374.023H359.27V251.797ZM421.137 320.881C425.833 315.212 428.183 307.24 428.187 296.966C428.187 286.931 425.837 279.109 421.137 273.497C416.437 267.886 409.974 265.081 401.748 265.083C398.13 264.936 394.527 265.636 391.224 267.127C387.92 268.618 385.006 270.859 382.712 273.674C378.011 279.403 375.661 287.167 375.661 296.966C375.661 307.124 378.012 315.066 382.712 320.792C385.006 323.607 387.92 325.849 391.223 327.34C394.527 328.831 398.13 329.53 401.748 329.383C409.972 329.383 416.435 326.549 421.137 320.881Z" fill="white"/>
<path d="M466.434 251.797H483.889V264.02C485.844 259.952 488.86 256.493 492.617 254.012C496.368 251.578 500.753 250.315 505.219 250.382C508.264 250.452 511.287 250.928 514.208 251.797V268.275H511.741C509.122 267.406 506.39 266.929 503.633 266.859C500.895 266.756 498.173 267.323 495.702 268.511C493.23 269.699 491.083 271.472 489.444 273.678C485.849 278.629 484.018 284.651 484.244 290.774V342.497H466.434V251.797Z" fill="white"/>
<path d="M600.39 302.281H536.929C537.635 311.022 540.161 317.782 544.508 322.562C548.854 327.342 554.729 329.733 562.134 329.736C568.596 329.736 573.648 328.113 577.292 324.865C581.001 321.491 583.326 316.85 583.814 311.847H598.972C597.561 322.358 593.567 330.386 586.99 335.93C580.325 341.511 571.869 344.469 563.195 344.254C554.923 344.496 546.756 342.345 539.666 338.057C533.225 334.018 528.106 328.166 524.947 321.229C521.579 313.779 519.894 305.673 520.012 297.492C519.908 289.291 521.469 281.154 524.598 273.579C527.466 266.606 532.307 260.632 538.522 256.398C544.748 252.147 552.386 250.021 561.436 250.021C570.486 250.021 577.948 252.176 583.82 256.486C589.641 260.725 594.112 266.571 596.69 273.314C599.436 280.459 600.811 288.062 600.743 295.722C600.759 297.913 600.641 300.104 600.39 302.281ZM543.987 271.194C539.873 275.508 537.522 281.441 536.937 288.996H583.998C583.644 281.676 581.558 275.801 577.741 271.371C573.923 266.941 568.371 264.727 561.084 264.729C553.797 264.729 548.098 266.884 543.987 271.194Z" fill="white"/>
<path d="M625.416 337.354C617.31 331.686 613.257 323.184 613.257 311.847H629.472C629.472 318.578 631.47 323.479 635.465 326.549C639.225 329.383 644.748 330.799 652.033 330.799C656.265 330.862 660.415 329.626 663.93 327.257C665.475 326.13 666.712 324.631 667.528 322.897C668.344 321.163 668.713 319.251 668.601 317.337C668.663 315.974 668.435 314.614 667.934 313.347C667.433 312.08 666.668 310.934 665.692 309.987C663.678 308.113 661.267 306.72 658.642 305.912C655.881 305.026 651.562 303.875 645.687 302.457C640.267 301.27 634.937 299.702 629.736 297.764C625.744 296.214 622.2 293.687 619.425 290.413C616.605 287.108 615.194 282.679 615.193 277.127C615.193 268.391 618.25 261.69 624.364 257.023C630.479 252.356 638.527 250.024 648.511 250.027C658.263 250.027 666.019 252.035 671.778 256.051C675.643 258.506 678.779 261.963 680.856 266.057C682.954 270.322 684.012 275.028 683.941 279.785H668.424C668.424 273.881 666.486 269.63 662.608 267.032C658.741 264.663 654.264 263.492 649.738 263.666C645.16 263.462 640.616 264.535 636.607 266.766C635.051 267.626 633.759 268.898 632.872 270.445C631.985 271.991 631.537 273.752 631.577 275.537C631.548 276.757 631.813 277.967 632.35 279.062C632.887 280.157 633.68 281.105 634.662 281.825C636.776 283.45 639.165 284.68 641.713 285.455C644.356 286.285 649.145 287.524 656.078 289.172C661.372 290.406 666.559 292.064 671.589 294.131C675.578 295.809 679.069 298.493 681.723 301.925C684.366 305.351 685.688 309.898 685.689 315.565C685.689 324.659 682.692 331.745 676.699 336.823C670.706 341.901 663.186 344.44 654.139 344.439C641.806 344.438 632.232 342.076 625.416 337.354Z" fill="white"/>
<path d="M709.057 337.441C703.708 332.778 701.035 326.491 701.038 318.578C701.038 307.006 707.207 298.384 719.544 292.711C728.709 288.699 740.108 286.691 753.739 286.689C756.796 286.689 759.146 286.748 760.789 286.866V280.135C760.789 269.035 754.091 263.485 740.696 263.485C735.143 263.263 729.633 264.546 724.743 267.201C720.572 269.679 718.487 273.871 718.488 279.778H702.088C702.088 269.857 705.76 262.418 713.104 257.458C720.449 252.499 729.35 250.021 739.808 250.025C750.736 250.025 759.666 252.623 766.599 257.82C773.532 263.016 776.999 270.812 777 281.208V342.496H760.783V330.454C757.01 334.956 752.28 338.55 746.942 340.972C741.603 343.394 735.793 344.582 729.937 344.448C721.358 344.441 714.398 342.105 709.057 337.441ZM749.421 326.549C754.036 323.863 757.936 320.095 760.789 315.566V298.561C757.499 298.326 755.033 298.208 753.392 298.207C743.875 298.207 736.06 299.743 729.949 302.816C723.014 306.242 719.548 311.024 719.55 317.163C719.465 319.013 719.812 320.857 720.562 322.548C721.311 324.24 722.444 325.732 723.869 326.906C727.126 329.393 731.152 330.646 735.237 330.447C740.223 330.43 745.115 329.085 749.415 326.549H749.421Z" fill="white"/>
<path d="M84.0667 115.655L54.2358 86.5761L39.097 71.0799L0 109.666L15.377 125.4L90.469 198.612L130.319 161.254L94.5695 126.394L84.0667 115.655Z" fill="white"/>
<path d="M170.368 123.71L130.319 161.254L169.657 199.608L209.629 162.132L173.404 126.814L170.368 123.71Z" fill="#EFEFEF"/>
<path d="M167.718 120.998L133.426 87.5707L131.112 85.2025L91.2058 122.613L84.0684 115.655L94.5712 126.396L130.325 161.255L170.375 123.711L167.718 120.998Z" fill="#F8F8F8"/>
<path d="M259.324 40.2357L210.413 86.0944L210.451 86.1357L259.362 40.277L259.324 40.2357Z" fill="#EFEFEF"/>
<path d="M221.999 0L131.107 85.2025L133.421 87.5706L167.713 120.998L170.39 123.607L210.406 86.0945L259.339 40.2316L221.999 0Z" fill="white"/>
<path d="M170.395 123.607L167.718 120.998L170.369 123.71L210.457 86.1345L210.417 86.0944L170.395 123.607Z" fill="#EFEFEF"/>
<path d="M212.266 87.9928L210.451 86.136L170.363 123.711L173.398 126.818L209.63 162.132L249.653 124.612L241.593 116.584L212.266 87.9928Z" fill="#F8F8F8"/>
<path d="M338.081 40.7401L301.19 0.994568L259.34 40.2317L259.378 40.2733L210.451 86.1391L212.266 87.9958L249.235 124.032L241.593 116.583L249.653 124.611L338.566 41.2604L338.081 40.7401Z" fill="#EFEFEF"/>
<path d="M338.081 40.7401L338.567 41.2633L338.081 40.7401Z" fill="white"/>
<path d="M380.526 1.95331L338.567 41.2633L209.629 162.132L248.496 200.025L417.406 41.6854L380.526 1.95331Z" fill="white"/>
</svg>
